<svg width="118" height="427" viewBox="0 0 118 427" fill="none" xmlns="http://www.w3.org/2000/svg">
<path d="M-58 2C-9.47379 26.323 36.8957 54.9595 80.2697 87.6697C92.7308 97.0155 105.312 107.2 112.621 121.099C115.017 125.532 116.694 130.804 115.017 135.597C113.579 139.551 110.104 142.307 106.63 144.583C92.2515 153.569 74.8779 156.086 58.3431 160.159C51.3937 161.837 44.0848 164.233 39.8912 169.985C34.6192 177.174 36.2966 187.718 41.2091 195.146C46.1217 202.575 53.79 207.607 60.9791 212.879C80.1499 226.778 99.8001 246.548 97.0442 270.152C94.4083 292.438 71.5231 307.895 49.1171 309.812C26.7112 311.729 -7.19724 298.549 -28.1654 290.401" stroke="#EBF0F7" stroke-width="3" stroke-miterlimit="10"/>
<path d="M-48.0552 41.7798C-31.041 47.0518 -14.0269 53.1625 0.590847 63.4668C15.2086 73.7711 27.1904 88.6285 30.5453 106.122C31.5038 111.154 31.7435 116.546 29.3471 121.099C26.7111 126.251 21.1995 129.486 15.6879 131.403C7.54029 134.279 -1.32623 135.238 -9.59366 137.754C-17.9809 140.27 -26.2483 144.823 -30.3221 152.491" stroke="#EBF0F7" stroke-width="3" stroke-miterlimit="10"/>
<g opacity="0.5">
<path fill-rule="evenodd" clip-rule="evenodd" d="M74.1782 338.471C73.9134 338.61 73.6514 338.883 73.3867 339.022C73.253 339.025 72.9855 339.03 72.8518 339.033C72.5843 339.038 72.3169 339.043 72.1859 339.179C71.913 338.917 71.5063 338.657 71.2334 338.394C70.966 338.399 70.5593 338.139 70.5593 338.139C70.0217 338.016 69.6096 337.488 69.2139 337.764C68.9355 337.233 68.3979 337.11 67.994 336.984C67.8575 336.852 67.7238 336.855 67.4536 336.726C67.1834 336.598 67.0524 336.734 66.7795 336.472C66.6431 336.34 66.6458 336.474 66.6458 336.474C66.3756 336.345 66.1 335.949 65.8298 335.82C65.6961 335.823 65.2922 335.697 65.2922 335.697C65.2922 335.697 65.1584 335.699 65.1557 335.565C65.0193 335.434 65.022 335.568 65.022 335.568C64.4816 335.311 64.8801 335.169 64.6126 335.174C64.6126 335.174 64.4762 335.043 64.3424 335.045C64.3424 335.045 64.3451 335.179 64.2114 335.182L64.075 335.051C63.6684 334.791 63.2644 334.664 62.9888 334.268C62.7241 334.407 62.4512 334.144 62.181 334.016C61.6379 333.624 61.0975 333.367 61.0866 332.832C60.5517 332.842 60.4098 332.443 60.0005 332.049C59.5966 331.923 59.1926 331.797 58.7887 331.671C58.3848 331.544 57.9782 331.284 57.5743 331.158C57.5607 330.489 57.1459 329.827 57.2687 329.289C57.2687 329.289 57.1322 329.158 56.9985 329.16L57.1268 328.89C57.1268 328.89 56.9903 328.759 56.8566 328.761C56.8539 328.627 56.8484 328.36 56.8457 328.226C56.8402 327.958 56.5728 327.963 56.5674 327.695C56.5619 327.428 56.8293 327.422 56.6902 327.157C56.8212 327.021 56.8184 326.887 56.9522 326.884C57.0914 327.149 57.3534 326.877 57.6208 326.871C57.7545 326.869 57.76 327.137 57.8937 327.134C57.8937 327.134 58.1612 327.129 58.2949 327.126C58.5651 327.255 58.838 327.517 59.1082 327.646L59.2392 327.51C59.2392 327.51 59.3756 327.641 59.5094 327.638C59.7795 327.767 60.3172 327.891 60.4509 327.888C60.8576 328.148 60.9913 328.145 61.3952 328.272C61.3952 328.272 61.5262 328.135 61.5289 328.269C61.6626 328.266 61.6654 328.4 61.7991 328.398C62.0693 328.526 62.203 328.524 62.3367 328.521C62.4732 328.652 62.6069 328.65 62.7406 328.647C62.8743 328.645 62.8771 328.779 63.0108 328.776C63.0108 328.776 63.2783 328.771 63.412 328.768C63.5457 328.766 63.6849 329.031 63.8132 328.76C64.0752 328.487 63.5375 328.364 63.5321 328.096L63.6631 327.96L63.3875 327.563C63.1118 327.167 63.1118 327.167 62.8389 326.904C62.8362 326.77 62.8362 326.77 62.8362 326.77C62.697 326.505 62.4269 326.376 62.2877 326.111C62.285 325.977 62.2795 325.709 62.2768 325.576C62.1349 325.176 61.862 324.914 61.9902 324.644C62.1212 324.507 61.9875 324.51 61.9875 324.51C61.9821 324.242 61.8429 323.977 61.8402 323.843C61.8402 323.843 61.9712 323.706 61.9684 323.572C61.9657 323.439 61.963 323.305 61.9603 323.171C61.9575 323.037 62.3533 322.761 62.3506 322.627C62.618 322.622 63.0219 322.748 63.2894 322.743C63.565 323.14 63.7042 323.405 63.9798 323.801C64.1163 323.933 64.3864 324.061 64.6594 324.324C64.7958 324.455 65.0715 324.852 65.2079 324.983C65.6146 325.243 65.8847 325.372 66.0239 325.637C66.1658 326.036 66.1576 325.634 66.4333 326.031C66.5697 326.162 66.436 326.165 66.436 326.165C66.5779 326.564 66.8454 326.559 67.1183 326.821L67.121 326.955C67.3993 327.485 68.2071 327.738 68.6165 328.131C68.8894 328.394 69.0313 328.793 69.3042 329.056C69.4407 329.187 69.7109 329.316 69.981 329.444C70.1175 329.576 69.9838 329.578 70.1202 329.71C70.2567 329.841 70.3904 329.838 70.3931 329.972C70.8025 330.366 71.0754 330.629 71.0781 330.763C71.2146 330.894 71.3483 330.891 71.351 331.025C71.4902 331.29 71.6294 331.556 71.8996 331.684C72.036 331.816 72.4372 331.808 72.4372 331.808C72.5736 331.939 72.7101 332.07 72.8466 332.202C72.9803 332.199 72.9803 332.199 72.9803 332.199C73.5179 332.323 73.7908 332.585 74.3339 332.976C74.877 333.368 75.824 333.885 76.2361 334.413C76.3725 334.544 76.2415 334.681 76.2443 334.815C76.2443 334.815 76.3807 334.946 76.5144 334.943L76.3834 335.08C76.3834 335.08 76.5199 335.211 76.6536 335.208C76.6563 335.342 76.7901 335.34 76.7928 335.474C76.4134 336.553 75.9085 338.036 74.9805 338.456C74.4456 338.466 74.3092 338.335 74.1782 338.471Z" fill="#DDE1F0"/>
<path fill-rule="evenodd" clip-rule="evenodd" d="M6.11891 247.869C6.25536 248.001 6.38908 247.998 6.52281 247.995C6.65926 248.127 6.52554 248.129 6.66199 248.261C6.79845 248.392 6.93216 248.389 6.93488 248.523C7.48615 249.316 8.17388 250.24 8.98716 250.76C9.3938 251.02 9.39384 251.02 9.53029 251.152C9.66947 251.417 9.93966 251.546 10.2098 251.674C10.4828 251.937 10.7557 252.2 10.8948 252.465C11.0313 252.596 11.1623 252.46 11.2987 252.591C11.4352 252.722 11.3042 252.859 11.5744 252.987C11.9838 253.381 12.5296 253.907 12.9335 254.033C13.4766 254.424 13.2037 254.161 13.6131 254.555C13.7495 254.687 14.0197 254.815 14.1561 254.947C14.0251 255.083 14.0279 255.217 14.0306 255.351C14.167 255.482 14.3008 255.48 14.4345 255.477C14.5709 255.608 14.5737 255.742 14.7101 255.874C15.256 256.399 15.6626 256.659 15.6735 257.194C16.2112 257.318 16.0856 257.722 16.4949 258.116C16.3639 258.253 16.6341 258.381 16.6369 258.515C16.6396 258.649 16.3748 258.788 16.6478 259.051C16.5222 259.455 16.9289 259.715 17.0708 260.114C16.6777 260.524 16.4212 261.064 16.0254 261.34L15.889 261.209C15.889 261.209 15.758 261.345 15.7607 261.479C15.6297 261.615 15.6324 261.749 15.3649 261.755C15.3649 261.755 15.2339 261.891 15.2366 262.025C15.1056 262.161 15.1084 262.295 14.8409 262.3C14.8409 262.3 14.7099 262.437 14.7126 262.571L14.5762 262.44L14.4452 262.576C14.3142 262.713 14.1777 262.581 14.044 262.584C14.044 262.584 13.913 262.72 13.9157 262.854C13.5172 262.996 13.2552 263.269 12.854 263.277C12.4528 263.284 11.776 262.896 11.6423 262.898C11.6423 262.898 11.5058 262.767 11.3721 262.77C10.9654 262.51 10.5588 262.25 10.2914 262.255C10.0239 262.26 9.75371 262.131 9.61725 262C9.48079 261.869 9.48351 262.003 9.48351 262.003C9.21332 261.874 9.21333 261.874 8.94315 261.745C8.80942 261.748 8.5392 261.619 8.5392 261.619C8.40275 261.488 8.40551 261.622 8.40551 261.622C8.00159 261.495 7.99611 261.228 7.8651 261.364L7.59221 261.102C7.45576 260.97 7.45848 261.104 7.45848 261.104C7.32202 260.973 7.05184 260.844 6.91811 260.847C6.78438 260.849 6.65062 260.852 6.51689 260.855C6.51689 260.855 6.38046 260.723 6.24673 260.726C5.57263 260.471 5.02681 259.946 4.35271 259.691C3.67588 259.302 3.00178 259.047 2.32768 258.793C1.92103 258.533 1.38064 258.275 1.24691 258.278C0.979444 258.283 0.436371 257.892 0.299915 257.76C0.299915 257.76 0.166176 257.763 0.163451 257.629C0.0269969 257.498 0.0297139 257.632 0.0297139 257.632C-0.106742 257.5 -0.243191 257.369 -0.513376 257.24C-0.917294 257.114 -1.1875 256.985 -1.46041 256.723C-1.73059 256.594 -2.00077 256.465 -2.00077 256.465C-2.00077 256.465 -2.0035 256.332 -2.13996 256.2C-2.5466 255.94 -3.21526 255.953 -3.49362 255.423C-3.63007 255.291 -3.36533 255.152 -3.36805 255.019L-3.50724 254.753C-3.50724 254.753 -3.37622 254.617 -3.37895 254.483C-3.38167 254.349 -3.51814 254.218 -3.52086 254.084C-3.52359 253.95 -3.39256 253.813 -3.26428 253.543C-3.80466 253.286 -3.40894 253.01 -3.67912 252.881C-3.68457 252.614 -3.41709 252.608 -3.29153 252.204C-3.29698 251.936 -3.57261 251.54 -3.17686 251.264C-3.17959 251.13 -3.17962 251.13 -3.04861 250.994C-2.64742 250.986 -2.2462 250.978 -1.83411 251.506C-1.56664 251.501 -1.43292 251.498 -1.29647 251.63C-1.16001 251.761 -1.15731 251.895 -1.02085 252.026C-0.884399 252.157 -0.753369 252.021 -0.616913 252.152C-0.210271 252.412 0.330085 252.67 0.463817 252.667C0.734002 252.796 0.873183 253.061 1.14337 253.19C1.14337 253.19 1.40813 253.051 1.54459 253.182L1.54731 253.316C1.68377 253.447 1.81475 253.311 1.81747 253.445C1.95393 253.576 2.09041 253.707 2.22686 253.838C2.63351 254.098 3.44403 254.485 3.71422 254.613C3.85067 254.745 3.98443 254.742 4.11816 254.739C4.11816 254.739 4.2519 254.737 4.25462 254.871C4.39108 255.002 4.38832 254.868 4.38832 254.868C4.65851 254.997 4.9287 255.126 5.19616 255.12C5.45545 254.713 5.04608 254.32 5.04063 254.052C5.03518 253.784 5.43094 253.508 5.29176 253.243C5.14985 252.844 4.87421 252.448 4.46484 252.054C4.18921 251.657 3.77983 251.263 3.63793 250.864C3.6352 250.73 3.76352 250.46 3.49606 250.465C3.49061 250.197 3.62158 250.061 3.61886 249.927C3.61886 249.927 3.75259 249.924 3.74987 249.79L3.47971 249.662C3.47698 249.528 3.60796 249.391 3.60523 249.257L3.46608 248.992C3.46608 248.992 3.59706 248.856 3.59433 248.722C3.71717 248.184 3.83457 247.378 4.49777 247.097C4.90441 247.357 5.17462 247.486 5.4448 247.614C5.71771 247.877 6.12978 248.405 6.39997 248.534C6.11616 247.735 6.11891 247.869 6.11891 247.869Z" fill="#DDE1F0"/>
<path fill-rule="evenodd" clip-rule="evenodd" d="M5.28782 320.173C5.42428 320.304 5.29055 320.307 5.29055 320.307C5.427 320.438 5.69717 320.567 5.83362 320.698C5.83635 320.832 5.83908 320.966 5.9728 320.963C6.10926 321.095 5.97553 321.097 5.97553 321.097C6.11198 321.229 6.38215 321.357 6.5186 321.488L6.39032 321.759C6.39304 321.893 6.52951 322.024 6.66596 322.155C6.66868 322.289 6.53767 322.426 6.53767 322.426C6.5404 322.56 6.81059 322.688 6.81332 322.822C6.81332 322.822 6.68231 322.959 6.68503 323.093C6.55403 323.229 6.82149 323.224 6.82422 323.358C6.82694 323.492 6.55947 323.497 6.5622 323.631C6.4312 323.767 6.56765 323.898 6.57037 324.032C6.44209 324.303 6.04365 324.444 6.0491 324.712C5.92082 324.982 5.78165 324.717 5.5142 324.722C5.38047 324.725 5.1212 325.132 4.9793 324.733C4.58357 325.008 4.31882 325.147 3.91764 325.155C3.24356 324.9 2.70323 324.643 2.2966 324.383C1.75625 324.126 1.34962 323.866 0.94299 323.606C0.806539 323.474 0.670055 323.343 0.399877 323.214C0.1297 323.086 -0.13772 323.091 -0.407898 322.962C-0.541624 322.965 -0.541632 322.965 -0.541632 322.965C-0.948261 322.705 -1.08744 322.44 -1.3549 322.445C-1.48862 322.447 -1.89524 322.187 -1.89524 322.187C-2.16542 322.059 -2.29915 322.061 -2.56933 321.933C-2.70305 321.935 -2.57205 321.799 -2.57205 321.799C-2.7085 321.667 -2.70579 321.801 -2.70579 321.801C-3.24886 321.41 -3.65277 321.284 -4.0594 321.024C-4.59975 320.767 -5.14011 320.509 -5.41301 320.247C-5.95336 319.989 -6.22898 319.593 -6.63016 319.6C-6.63016 319.6 -6.76663 319.469 -6.90036 319.472C-7.57716 319.083 -7.98377 318.823 -8.52412 318.566C-9.46838 318.182 -10.6856 317.536 -11.4961 317.15C-11.6325 317.019 -12.1702 316.895 -12.3039 316.898C-12.3066 316.764 -12.1729 316.761 -12.4404 316.766C-12.4404 316.766 -12.5768 316.635 -12.7105 316.638C-13.1144 316.512 -13.3846 316.383 -13.6575 316.12C-14.4681 315.734 -15.415 315.217 -16.3566 314.967C-16.3675 314.432 -16.6431 314.035 -16.5203 313.497C-16.6595 313.232 -16.6649 312.964 -16.8013 312.833C-17.0742 312.57 -16.6785 312.295 -16.8177 312.03C-16.9596 311.631 -17.3689 311.237 -16.9759 310.827C-16.9787 310.693 -16.9786 310.693 -16.8476 310.557C-16.7112 310.688 -16.5802 310.552 -16.4465 310.549C-16.3128 310.546 -16.31 310.68 -16.1763 310.678L-15.9116 310.539C-15.7779 310.536 -15.5049 310.799 -15.3739 310.662C-15.232 311.061 -14.6944 311.185 -14.427 311.18C-14.1568 311.308 -13.8866 311.437 -13.6191 311.432C-13.349 311.561 -12.9423 311.821 -12.6722 311.949L-12.5412 311.813C-12.4075 311.81 -12.2683 312.075 -12.1318 312.207C-11.9981 312.204 -11.8644 312.201 -11.8617 312.335C-11.7252 312.467 -11.7279 312.333 -11.7279 312.333C-11.324 312.459 -11.0484 312.855 -10.6417 313.115C-9.9731 313.102 -9.4273 313.627 -8.61949 313.88C-7.94541 314.135 -7.12943 314.788 -6.73915 314.245C-6.8756 314.114 -6.74459 313.977 -6.61359 313.841C-6.75277 313.576 -6.76096 313.174 -6.89469 313.177C-7.03114 313.045 -6.63541 312.77 -6.90559 312.641C-6.51258 312.232 -5.97767 312.221 -5.58467 311.812C-5.45367 311.675 -5.85759 311.549 -5.86031 311.415C-5.86304 311.281 -5.7293 311.279 -5.73203 311.145C-6.00493 310.882 -5.87394 310.746 -5.87939 310.478C-5.87939 310.478 -6.01581 310.347 -6.14954 310.349C-6.15226 310.216 -6.15499 310.082 -6.15771 309.948C-6.29689 309.683 -6.43336 309.551 -6.43881 309.284C-6.44426 309.016 -6.45243 308.614 -6.45516 308.48C-6.45516 308.48 -6.59158 308.349 -6.72531 308.352C-6.86993 307.819 -6.88902 306.881 -7.03365 306.348C-7.03365 306.348 -6.90264 306.212 -6.90536 306.078C-6.90536 306.078 -7.04182 305.947 -7.04455 305.813C-7.04727 305.679 -6.7798 305.674 -6.78253 305.54C-6.65153 305.403 -6.657 305.136 -6.526 304.999C-6.526 304.999 -6.12755 304.858 -5.86009 304.852C-5.72637 304.85 -5.5872 305.115 -5.31975 305.11C-4.78212 305.233 -4.3673 305.895 -3.82422 306.286C-3.95523 306.423 -3.68504 306.551 -3.68232 306.685C-3.67959 306.819 -3.94432 306.958 -3.67142 307.221C-3.39579 307.617 -3.25935 307.749 -3.25118 308.15C-3.24846 308.284 -3.24572 308.418 -3.10927 308.549C-2.97282 308.681 -2.96735 308.948 -2.8309 309.08L-2.95919 309.35C-2.95919 309.35 -2.82272 309.481 -2.689 309.479C-2.54982 309.744 -2.41066 310.009 -2.27148 310.274C-2.26876 310.408 -2.26603 310.542 -2.12957 310.673C-1.99312 310.805 -1.99311 310.805 -1.99039 310.938C-1.99039 310.938 -1.85396 311.07 -1.72024 311.067C-1.71751 311.201 -1.71479 311.335 -1.71206 311.469C-1.70934 311.603 -1.5756 311.6 -1.5756 311.6C-1.43915 311.731 -1.57288 311.734 -1.57288 311.734C-1.43643 311.865 -1.43641 311.865 -1.29724 312.13C-1.15806 312.396 -1.02163 312.527 -1.01618 312.795C-0.879732 312.926 -0.876991 313.06 -0.74054 313.191C-0.737816 313.325 -0.737816 313.325 -0.737816 313.325C-0.59864 313.59 -0.32847 313.719 -0.189295 313.984C-0.0501188 314.249 -0.0473773 314.383 0.0917984 314.648C0.228249 314.78 0.498419 314.908 0.63487 315.04L0.637595 315.174C0.910497 315.436 1.18613 315.833 1.45903 316.095C1.59549 316.226 1.59819 316.36 1.73464 316.492C2.14672 317.019 3.09644 317.671 3.37207 318.067C3.37207 318.067 3.37752 318.335 3.37479 318.201C3.51124 318.332 3.64223 318.196 3.77868 318.327C3.91513 318.458 3.91787 318.592 4.05432 318.724C4.32722 318.986 5.0122 319.777 5.28782 320.173C5.1541 320.176 5.28782 320.173 5.28782 320.173Z" fill="#DDE1F0"/>
<path fill-rule="evenodd" clip-rule="evenodd" d="M22.8454 287.959C23.1183 288.222 23.0009 289.027 23.6721 289.148C23.5412 289.285 23.6803 289.55 23.683 289.684C24.0869 289.81 23.9586 290.08 24.2315 290.343C24.2451 291.012 24.6544 291.406 25.0664 291.933C25.4784 292.461 25.4811 292.595 25.4865 292.862C25.4893 292.996 25.623 292.994 25.7621 293.259C26.0377 293.655 26.3133 294.051 26.4524 294.317C26.5943 294.716 26.6025 295.117 27.1427 295.374C27.1536 295.91 27.2982 296.443 27.3064 296.844C27.3064 296.844 27.4428 296.975 27.5765 296.973L27.451 297.377C27.32 297.513 27.4537 297.511 27.4537 297.511C27.4564 297.645 27.1945 297.918 27.4646 298.046C26.6733 298.597 26.556 299.403 25.8956 299.817C25.6309 299.956 25.4972 299.959 25.3662 300.095C25.1043 300.368 24.6977 300.108 24.4358 300.381C24.0265 299.988 23.3525 299.733 23.2188 299.735C23.0851 299.738 23.0797 299.47 23.0797 299.47C23.077 299.336 22.8123 299.475 22.946 299.473C22.2666 298.95 21.9937 298.688 21.4589 298.698C21.0442 298.037 20.242 298.052 19.5653 297.664C19.4316 297.666 19.4288 297.533 19.2924 297.401C18.6157 297.013 17.9363 296.49 17.2624 296.236C16.9922 296.107 16.7249 296.112 16.4547 295.983L16.452 295.85C16.452 295.85 16.1846 295.855 16.3183 295.852C16.1819 295.721 16.1791 295.587 16.0427 295.456L15.909 295.458C14.9622 294.941 14.2882 294.686 13.4778 294.3C13.4724 294.033 13.4697 293.899 13.4669 293.765C13.4533 293.096 13.3114 292.697 13.2978 292.027C13.2896 291.626 13.5434 290.951 13.2733 290.823C13.1369 290.692 13.2706 290.689 13.2706 290.689C13.2651 290.421 13.1233 290.022 13.5217 289.881C13.7891 289.875 13.9228 289.873 14.0565 289.87C14.4548 289.729 15.2734 290.516 15.6745 290.508C15.6745 290.508 15.8109 290.64 15.9446 290.637C16.3485 290.763 16.7577 291.157 17.1534 290.881C17.942 290.197 17.3963 289.672 18.1849 288.987C18.7197 288.976 19.2654 289.501 19.5355 289.63C19.5355 289.63 19.8029 289.625 19.6692 289.628C19.9394 289.756 20.084 290.289 20.3514 290.284C20.2149 290.153 20.3459 290.016 20.3432 289.882C20.3323 289.347 19.792 289.09 19.7811 288.554C19.6365 288.021 19.4947 287.622 19.3555 287.357C19.2191 287.226 19.0826 287.095 19.0799 286.961L19.2082 286.691C19.2082 286.691 19.0718 286.559 18.9381 286.562C18.9326 286.294 18.9245 285.893 18.9217 285.759C18.9217 285.759 18.7853 285.628 18.6516 285.63C18.6489 285.496 19.0418 285.087 18.6407 285.095C18.8999 284.688 18.7608 284.423 19.02 284.016C18.8808 283.751 18.608 283.489 18.8672 283.082C18.8591 282.68 19.3884 282.402 19.6476 281.995C20.4526 282.114 20.7309 282.644 21.5467 283.298C21.4321 284.237 21.3147 285.043 22.1333 285.83C22.0078 286.235 22.1496 286.634 22.5562 286.893C22.4252 287.03 22.4252 287.03 22.4279 287.164C22.4279 287.164 22.709 287.828 22.8454 287.959Z" fill="#DDE1F0"/>
<path fill-rule="evenodd" clip-rule="evenodd" d="M43.355 295.974C43.6116 295.433 44.1384 295.021 44.2612 294.483C44.3977 294.614 44.5287 294.478 44.6651 294.609C45.2028 294.733 45.8824 295.255 46.1526 295.384C46.42 295.379 46.5592 295.644 46.6929 295.641L46.9577 295.502C47.3616 295.628 47.771 296.022 48.1749 296.148L48.306 296.012C48.306 296.012 48.4424 296.143 48.5762 296.141C48.8464 296.269 49.1165 296.398 49.5205 296.524C49.6569 296.656 49.9244 296.65 50.0581 296.648C50.1946 296.779 50.4648 296.908 50.5985 296.905L50.7295 296.769C50.7295 296.769 50.866 296.9 50.9997 296.897L51.1307 296.761C51.2645 296.758 51.6711 297.018 51.6738 297.152C51.8103 297.284 51.8076 297.15 51.8076 297.15C51.9413 297.147 52.0805 297.412 52.217 297.544C52.3534 297.675 52.3507 297.541 52.3507 297.541C52.7546 297.667 52.7574 297.801 53.0248 297.796C53.0248 297.796 53.1613 297.927 53.295 297.925C53.5652 298.053 53.6962 297.917 53.9692 298.179C54.1056 298.311 54.1029 298.177 54.1029 298.177C54.5068 298.303 54.9162 298.697 55.3092 298.287C55.039 298.159 54.8998 297.893 54.8971 297.759C55.1564 297.353 55.2765 296.681 55.2711 296.413C55.2656 296.145 55.5331 296.14 55.5276 295.872C55.5249 295.738 55.3885 295.607 55.5195 295.47C55.5167 295.336 55.6505 295.334 55.6478 295.2C55.645 295.066 55.645 295.066 55.645 295.066C55.9016 294.525 56.2946 294.116 56.6849 293.572C57.3591 293.827 58.0414 294.484 58.4453 294.61C58.8492 294.736 59.1221 294.999 59.5261 295.125C60.0665 295.382 60.4758 295.776 61.0081 295.632C60.1839 294.576 59.0949 293.66 58.2734 292.738C57.9978 292.341 57.7221 291.945 57.5857 291.814C57.583 291.68 57.4492 291.682 57.3155 291.685C57.0425 291.422 56.9034 291.157 56.7669 291.026C56.3521 290.364 55.678 290.109 55.2686 289.715C55.2631 289.447 55.2604 289.314 55.2549 289.046C55.1158 288.781 55.1103 288.513 54.9739 288.381C55.2332 287.975 55.2195 287.305 55.4788 286.898C55.7381 286.491 56.0083 286.62 55.8691 286.355C55.8637 286.087 56.3959 285.943 56.3959 285.943C56.6634 285.938 56.7971 285.935 56.9336 286.066C57.0673 286.064 57.474 286.324 57.474 286.324C57.474 286.324 57.343 286.46 57.4767 286.458C57.6132 286.589 57.4794 286.592 57.6159 286.723C57.7524 286.854 57.8833 286.718 58.0198 286.849C58.5629 287.24 58.975 287.768 59.2479 288.031C59.6573 288.425 59.9275 288.553 59.933 288.821C59.933 288.821 60.0694 288.952 60.2032 288.95C60.4788 289.346 60.6153 289.478 60.8855 289.606C61.0219 289.738 61.1584 289.869 61.2948 290C61.5677 290.263 61.8461 290.793 61.8461 290.793C61.8461 290.793 61.9771 290.657 61.9798 290.791L61.9826 290.925C61.9853 291.058 62.119 291.056 62.2528 291.053C62.6622 291.447 63.0743 291.975 63.3499 292.372C63.6228 292.634 63.893 292.763 64.0322 293.028C64.0322 293.028 64.0376 293.296 64.0404 293.43L64.1741 293.427C64.3106 293.558 64.1796 293.695 64.3133 293.692C64.447 293.69 64.447 293.69 64.447 293.69C64.5835 293.821 64.5917 294.223 64.7254 294.22C64.7281 294.354 64.8619 294.351 64.8619 294.351C65.1375 294.748 65.2767 295.013 65.5496 295.276C65.5496 295.276 65.6806 295.139 65.6833 295.273L65.6861 295.407C66.1009 296.069 66.382 296.733 66.9251 297.124C67.0588 297.122 66.7968 297.395 66.7968 297.395C66.7995 297.529 67.067 297.524 67.067 297.524C67.2035 297.655 67.0725 297.791 67.0752 297.925C67.0752 297.925 67.2116 298.057 67.3454 298.054C67.621 298.45 67.8994 298.981 67.9048 299.249L68.0413 299.38L67.9103 299.516C67.9103 299.516 68.0468 299.648 68.1805 299.645L68.0495 299.782C68.0495 299.782 68.1859 299.913 68.3197 299.91C68.5953 300.307 68.8737 300.837 69.1493 301.234C69.2858 301.365 69.1548 301.502 69.1602 301.769C69.1629 301.903 69.2994 302.035 69.1711 302.305C69.4413 302.434 69.3103 302.57 69.313 302.704C69.717 302.83 69.3212 303.106 69.5914 303.234C69.3294 303.507 69.4658 303.639 69.605 303.904C69.2065 304.046 69.3484 304.445 69.0864 304.718C68.9554 304.854 68.6934 305.127 68.4286 305.266L68.2922 305.135L67.8964 305.411C67.6317 305.55 67.6317 305.55 67.4979 305.552C67.3642 305.555 67.2332 305.691 67.1022 305.828C66.8347 305.833 66.6983 305.702 66.4335 305.841C65.8986 305.851 65.5001 305.993 65.0989 306.001C64.7004 306.142 64.3019 306.284 63.9034 306.426L63.767 306.294C63.767 306.294 63.636 306.431 63.6387 306.565C63.505 306.567 63.3712 306.57 63.2375 306.572C62.97 306.578 62.8363 306.58 62.5715 306.719C62.4324 306.454 62.1649 306.459 62.0312 306.462C61.8947 306.331 61.761 306.333 61.4908 306.204C61.357 306.207 61.357 306.207 61.357 306.207C60.6829 305.952 60.0088 305.697 59.4711 305.574C59.0672 305.448 58.5268 305.19 58.2566 305.062L58.1256 305.198L57.9891 305.067C57.5852 304.941 57.1785 304.681 56.9111 304.686C56.9111 304.686 56.7746 304.555 56.6409 304.557C56.1005 304.3 55.5656 304.31 55.1589 304.05C54.8887 303.921 54.755 303.924 54.351 303.798C54.0808 303.669 53.9471 303.672 53.6769 303.543C53.273 303.417 53.1338 303.152 52.869 303.291L52.7326 303.159C52.1922 302.902 51.6518 302.645 51.1142 302.521C50.9777 302.39 50.8467 302.526 50.7102 302.395C50.5738 302.264 50.5765 302.398 50.5765 302.398C50.3063 302.269 50.1698 302.138 49.8996 302.009C49.4957 301.883 49.0918 301.757 48.6879 301.63C48.4177 301.502 48.2812 301.37 48.011 301.242L47.88 301.378C47.88 301.378 47.7435 301.247 47.6098 301.25C47.2059 301.123 47.0721 301.126 46.8046 301.131C46.6709 301.134 46.3953 300.737 46.2615 300.74C46.2615 300.74 45.9941 300.745 45.8603 300.748C45.5902 300.619 45.4537 300.488 45.32 300.49L45.1889 300.627C45.1889 300.627 45.0525 300.495 44.9187 300.498C44.3811 300.374 43.5678 299.854 43.1666 299.862L42.7626 299.736C42.356 299.476 42.2195 299.345 41.8156 299.219C42.2032 298.541 41.9248 298.011 42.7136 297.326C43.6334 296.504 43.093 296.247 43.355 295.974Z" fill="#DDE1F0"/>
<path fill-rule="evenodd" clip-rule="evenodd" d="M13.4982 349.439C13.6346 349.57 13.5009 349.572 13.5009 349.572C13.6374 349.704 13.9102 349.966 13.913 350.1C13.913 350.1 13.9184 350.368 13.9211 350.502C13.9239 350.636 14.0603 350.767 14.063 350.901C14.3387 351.297 14.617 351.828 14.7616 352.361C14.7643 352.494 14.898 352.492 15.0372 352.757C15.1791 353.156 15.0509 353.426 15.4602 353.82C15.5966 353.951 15.4629 353.954 15.4629 353.954C15.7413 354.484 16.0169 354.881 16.2979 355.545C16.3007 355.679 16.3034 355.813 16.3061 355.947C16.4426 356.078 16.71 356.073 16.7154 356.34C16.7154 356.34 16.7209 356.608 16.7236 356.742C16.7263 356.876 16.8628 357.007 16.8655 357.141C17.002 357.272 17.2721 357.401 17.4086 357.532C17.1466 357.805 17.4222 358.202 17.5614 358.467C18.1099 359.126 18.2545 359.659 18.4018 360.326C18.8085 360.586 18.5492 360.992 18.6829 360.99C18.6856 361.124 18.9531 361.118 18.9558 361.252L18.8275 361.523C18.8275 361.523 18.964 361.654 19.0977 361.651C19.1004 361.785 18.9722 362.056 19.1086 362.187C19.5125 362.313 19.2505 362.586 19.6571 362.846C19.5288 363.116 19.668 363.381 19.6734 363.649C19.6816 364.051 19.8181 364.182 19.5588 364.589C19.4278 364.725 19.1658 364.998 18.9038 365.271C18.6418 365.544 18.3798 365.817 18.1151 365.956L17.9786 365.825C17.9786 365.825 17.8477 365.961 17.8504 366.095L17.714 365.964C17.714 365.964 17.583 366.1 17.5857 366.234C17.452 366.237 17.3183 366.239 17.1845 366.242C17.0508 366.245 16.9171 366.247 16.6496 366.252C16.3849 366.392 16.1229 366.664 15.7163 366.404C15.3124 366.278 15.0341 365.748 14.6302 365.622C14.0871 365.231 13.5496 365.107 13.1402 364.713C13.1402 364.713 12.8728 364.719 13.0065 364.716C12.7363 364.587 12.7308 364.32 12.5944 364.188L12.4607 364.191C12.3243 364.06 12.1905 364.062 12.0568 364.065C11.5165 363.807 11.2381 363.277 10.6978 363.02C10.5614 362.888 10.5641 363.022 10.5641 363.022C10.4303 363.025 10.4249 362.757 10.2912 362.76C9.88731 362.634 9.61987 362.639 9.61442 362.371C9.6117 362.237 9.34697 362.376 9.4807 362.374C8.80119 361.851 8.53103 361.722 8.12714 361.596C7.85697 361.468 7.58408 361.205 7.31391 361.076C6.91002 360.95 6.36697 360.559 6.09681 360.43C5.6902 360.17 5.6902 360.17 5.55376 360.039C5.42004 360.042 5.4173 359.908 5.28358 359.91C4.33936 359.527 2.98582 358.75 2.17532 358.364C1.77143 358.237 1.90789 358.369 1.63772 358.24C1.23383 358.114 0.960926 357.851 0.690761 357.723C0.950027 357.316 0.80539 356.783 1.06466 356.376C0.922763 355.977 1.04561 355.439 0.769993 355.043C1.42497 354.36 1.26946 353.292 2.20551 353.274C2.47295 353.268 2.47838 353.536 2.61482 353.668C2.75127 353.799 3.15516 353.925 3.2916 354.056L3.42261 353.92C3.42261 353.92 3.55903 354.051 3.69275 354.048C3.82647 354.046 3.96295 354.177 4.22766 354.038C4.22766 354.038 4.36408 354.169 4.49781 354.167C4.90169 354.293 5.17461 354.555 5.57849 354.681C5.84866 354.81 5.98238 354.808 6.25255 354.936C7.19677 355.32 8.14098 355.703 8.95421 356.223C9.48909 356.213 10.0158 355.801 10.5479 355.657C11.0855 355.78 11.7705 356.57 12.1635 356.161C12.1608 356.027 12.158 355.893 12.1553 355.759C12.1526 355.625 12.2836 355.489 12.1471 355.358C12.1417 355.09 12.0025 354.825 11.7323 354.696C11.9916 354.289 11.5796 353.762 11.5768 353.628C11.5741 353.494 11.4377 353.362 11.4349 353.229C11.2903 352.696 11.2794 352.16 11.2712 351.759C11.2658 351.491 11.2604 351.223 11.3886 350.953C11.5196 350.816 11.2467 350.554 11.1103 350.422C11.6342 349.877 11.6179 349.073 12.0136 348.798L12.1474 348.795C12.2784 348.659 12.4093 348.522 12.8105 348.514C12.947 348.646 13.0807 348.643 13.0834 348.777L13.0861 348.911C13.359 349.173 13.49 349.037 13.6264 349.168C13.3563 349.04 13.3617 349.307 13.4982 349.439C13.3617 349.307 13.4955 349.305 13.4982 349.439Z" fill="#DDE1F0"/>
<path fill-rule="evenodd" clip-rule="evenodd" d="M-3.2036 397.432C-3.33734 397.434 -3.46833 397.571 -3.60479 397.44C-3.73852 397.442 -3.74398 397.174 -3.87772 397.177C-3.87772 397.177 -4.14517 397.182 -4.2789 397.185C-4.68282 397.059 -4.82202 396.793 -5.08676 396.933L-5.49071 396.806C-5.62716 396.675 -5.62714 396.675 -5.76087 396.678C-5.76087 396.678 -5.89735 396.546 -6.03108 396.549C-6.435 396.423 -6.57144 396.292 -6.97536 396.165C-7.24555 396.037 -7.51303 396.042 -7.78322 395.913C-7.91967 395.782 -8.32087 395.79 -8.45733 395.658C-8.72752 395.53 -8.86398 395.398 -9.13417 395.27L-9.26519 395.406L-9.66909 395.28C-9.80555 395.149 -9.80557 395.149 -9.9393 395.151C-9.9393 395.151 -10.0758 395.02 -10.2095 395.023C-10.3432 395.025 -10.4797 394.894 -10.7444 395.033C-10.7444 395.033 -10.8809 394.902 -11.0146 394.904C-11.2848 394.776 -11.8225 394.652 -11.9562 394.655C-12.0927 394.523 -12.0927 394.523 -12.2264 394.526L-12.3628 394.395C-12.4966 394.397 -12.6331 394.266 -12.8978 394.405C-12.8978 394.405 -13.0342 394.274 -13.168 394.276C-13.3044 394.145 -13.4382 394.148 -13.5719 394.15C-13.9758 394.024 -14.7864 393.638 -15.0538 393.643C-15.0538 393.643 -15.1903 393.512 -15.324 393.514C-15.4605 393.383 -15.5942 393.386 -15.728 393.388C-16.1319 393.262 -16.4048 393 -16.5358 393.136L-16.9398 393.01C-17.0762 392.879 -17.2099 392.881 -17.3437 392.884C-17.4774 392.887 -17.4801 392.753 -17.6139 392.755C-18.0178 392.629 -18.5582 392.372 -18.8284 392.243C-18.9648 392.112 -18.9621 392.246 -18.9621 392.246C-19.366 392.119 -19.5052 391.854 -19.9064 391.862C-20.1739 391.867 -20.313 391.602 -20.5832 391.473C-20.717 391.476 -20.717 391.476 -20.717 391.476C-21.2573 391.218 -21.9369 390.696 -22.2044 390.701C-22.2044 390.701 -22.3408 390.57 -22.4746 390.572C-22.7447 390.444 -23.0149 390.315 -23.2824 390.32C-23.4161 390.323 -23.5472 390.459 -23.6864 390.194C-23.4325 389.519 -23.5771 388.986 -23.3178 388.58C-23.1868 388.443 -23.0558 388.307 -23.0613 388.039C-23.0667 387.771 -23.4734 387.511 -23.4761 387.377C-23.2141 387.104 -23.2168 386.97 -23.2222 386.702C-23.2277 386.435 -23.0994 386.164 -23.1049 385.896C-22.9739 385.76 -22.9739 385.76 -22.8428 385.623C-22.7064 385.755 -22.5754 385.618 -22.3079 385.613L-22.1769 385.477C-20.9624 385.989 -19.6115 386.632 -18.397 387.145L-18.2632 387.142C-18.1295 387.139 -18.1268 387.273 -17.993 387.271C-17.7228 387.399 -17.4554 387.394 -17.1852 387.523C-17.0487 387.654 -17.0515 387.52 -17.0515 387.52C-16.5111 387.778 -16.1072 387.904 -15.5695 388.027C-15.302 388.022 -15.2966 388.29 -15.0291 388.285C-14.8954 388.282 -14.7644 388.146 -14.6306 388.143C-14.7698 387.878 -14.3741 387.602 -14.3795 387.335C-14.2512 387.064 -14.3931 386.665 -13.9919 386.657C-13.326 386.511 -12.7774 387.17 -12.2371 387.427C-11.5629 387.682 -11.0198 388.073 -10.4903 387.795C-10.4958 387.527 -10.1001 387.252 -10.373 386.989C-10.3784 386.721 -10.1164 386.448 -10.2556 386.183C-10.3975 385.784 -10.8042 385.524 -11.0798 385.127C-11.0798 385.127 -11.0852 384.86 -11.0825 384.994C-11.4919 384.6 -12.035 384.208 -12.3106 383.812C-12.4471 383.681 -12.4525 383.413 -12.589 383.281C-12.7254 383.15 -12.7282 383.016 -12.8646 382.885C-13.0038 382.62 -13.143 382.355 -13.2794 382.223C-13.4159 382.092 -13.5578 381.693 -13.828 381.564C-13.566 381.291 -13.7052 381.026 -13.8444 380.761C-13.8498 380.493 -13.5905 380.086 -13.596 379.818C-13.5987 379.685 -13.6041 379.417 -13.6069 379.283C-13.877 379.154 -13.4813 378.879 -13.6178 378.747C-13.222 378.472 -13.2302 378.07 -12.9682 377.797C-12.5779 377.254 -12.4414 377.385 -12.0456 377.109C-11.7727 377.372 -11.6363 377.503 -11.3633 377.766C-11.2269 377.897 -10.954 378.16 -10.9513 378.294L-11.0796 378.564C-10.8039 378.961 -10.8039 378.961 -10.531 379.223C-10.3946 379.354 -10.5283 379.357 -10.5283 379.357C-10.2526 379.754 -10.1216 379.617 -10.1162 379.885C-10.1134 380.019 -9.97697 380.15 -9.97697 380.15C-9.84051 380.281 -9.70953 380.145 -9.7068 380.279C-9.43661 380.407 -9.29199 380.94 -9.15553 381.072C-8.88262 381.334 -8.47323 381.728 -8.20031 381.991C-7.9274 382.253 -7.78277 382.786 -7.50985 383.049C-7.23421 383.446 -6.82758 383.706 -6.41548 384.233C-6.14257 384.496 -6.13982 384.63 -6.00336 384.761C-5.8669 384.892 -5.59672 385.021 -5.46026 385.152C-5.46026 385.152 -5.45481 385.42 -5.45754 385.286C-5.1819 385.683 -4.36862 386.203 -4.36317 386.471C-4.36044 386.605 -4.09296 386.599 -4.09296 386.599C-3.95923 386.597 -4.08751 386.867 -4.09023 386.733C-3.40522 387.524 -2.3163 388.44 -1.63401 389.097L-1.76499 389.233C-1.76226 389.367 -1.49755 389.228 -1.63129 389.231C-1.22464 389.491 -1.21916 389.758 -1.0827 389.89C-0.946241 390.021 -0.948999 389.887 -0.948999 389.887C-0.815266 389.884 -0.946274 390.021 -0.946274 390.021C-0.807092 390.286 -0.536869 390.415 -0.397687 390.68C-0.124771 390.943 0.142687 390.937 0.142687 390.937C0.279145 391.069 0.418311 391.334 0.554768 391.465C1.37079 392.119 2.05308 392.776 2.59891 393.301C2.73537 393.432 2.60163 393.435 2.60163 393.435C2.73809 393.566 3.00828 393.695 3.2812 393.957C3.55411 394.22 3.42585 394.49 3.69332 394.485C3.96079 394.48 4.51479 395.407 4.37833 395.276C4.51479 395.407 4.38106 395.409 4.38106 395.409C4.51752 395.541 4.92144 395.667 5.06062 395.932L4.93233 396.202C4.93233 396.202 5.06876 396.334 5.2025 396.331C5.33895 396.462 5.62007 397.127 5.62007 397.127C5.62279 397.261 5.62551 397.395 5.49177 397.397C5.4945 397.531 5.49722 397.665 5.49995 397.799C5.37166 398.069 5.24064 398.206 5.24336 398.34C5.24336 398.34 5.24881 398.607 5.24609 398.473C5.1178 398.744 4.45459 399.025 3.9251 399.303C3.79137 399.305 3.66038 399.442 3.52937 399.578C3.39564 399.581 3.26192 399.584 3.12819 399.586C2.72971 399.728 2.46496 399.867 2.32851 399.736C2.19205 399.604 2.19476 399.738 2.19476 399.738C1.9273 399.743 1.65437 399.481 1.25044 399.355L1.11947 399.491L0.983 399.36C0.579077 399.234 0.175136 399.108 0.0414031 399.11C0.0414031 399.11 -0.09503 398.979 -0.228763 398.981C-0.362496 398.984 -0.496254 398.987 -0.629987 398.989C-0.897453 398.994 -1.0339 398.863 -1.16764 398.866C-1.4351 398.871 -1.70803 398.608 -2.11196 398.482C-2.24842 398.351 -2.38214 398.354 -2.65233 398.225C-2.78606 398.227 -2.78607 398.227 -2.78607 398.227C-2.92253 398.096 -3.19 398.101 -3.46019 397.973C-3.06444 397.697 -3.06715 397.563 -3.2036 397.432Z" fill="#DDE1F0"/>
<path fill-rule="evenodd" clip-rule="evenodd" d="M25.9736 330.316C26.2329 329.909 26.2274 329.642 26.6231 329.366C26.0828 329.109 26.746 328.828 26.2083 328.704C26.6014 328.295 26.585 327.491 27.2509 327.345C27.3819 327.208 27.5184 327.339 27.6467 327.069C28.5937 327.586 29.4016 327.839 30.3459 328.222C30.7498 328.348 31.1564 328.608 31.5603 328.734L31.6914 328.598L31.8278 328.729C32.2317 328.855 32.6384 329.115 32.9086 329.244C33.5772 329.231 34.2541 329.62 34.9282 329.875C35.6023 330.129 36.2791 330.518 36.9396 330.104C37.0679 329.833 36.9287 329.568 36.926 329.434C36.926 329.434 37.057 329.298 37.0543 329.164L36.9178 329.032C36.9178 329.032 37.0488 328.896 37.0461 328.762C37.0406 328.494 36.7704 328.365 36.8987 328.095C37.0297 327.959 36.8906 327.693 36.8878 327.56C36.2028 326.769 35.7826 325.84 34.9638 325.052C35.0948 324.915 34.8246 324.787 34.8219 324.653C34.8219 324.653 34.9529 324.516 34.9502 324.382C34.9475 324.248 34.811 324.117 34.6745 323.986C34.6718 323.852 34.6691 323.718 34.3989 323.589C34.9284 323.311 34.781 322.644 34.9093 322.374C34.9039 322.106 35.0321 321.836 35.1631 321.699C35.548 320.888 35.9492 320.88 36.4814 320.736C36.6179 320.867 36.7543 320.999 36.8908 321.13C37.0272 321.261 36.8935 321.264 36.8935 321.264C37.03 321.395 37.161 321.259 37.1637 321.392L37.1664 321.526C37.3029 321.658 37.3002 321.524 37.4366 321.655C37.4393 321.789 37.8405 321.781 37.8405 321.781C37.977 321.912 37.9824 322.18 38.1216 322.445C38.2608 322.711 38.6647 322.837 38.8039 323.102C38.9404 323.233 38.8094 323.37 38.9431 323.367C39.0795 323.499 38.9458 323.501 38.9458 323.501C39.0823 323.632 39.3525 323.761 39.4889 323.892C39.7618 324.155 39.901 324.42 40.1739 324.683C40.3104 324.814 40.1766 324.817 40.1766 324.817C40.4523 325.213 40.8589 325.473 41.1319 325.736C41.4048 325.998 41.5467 326.398 41.8196 326.66C42.0925 326.923 42.4991 327.183 42.9058 327.443C43.045 327.708 43.1841 327.973 43.3206 328.105C43.5935 328.367 43.8637 328.496 44.0029 328.761C44.1393 328.892 44.0083 329.029 44.011 329.163C44.1475 329.294 44.2785 329.158 44.2812 329.291C44.4177 329.423 44.6879 329.551 44.8243 329.683C45.0972 329.945 44.9663 330.082 45.1027 330.213C45.1027 330.213 45.2337 330.077 45.2364 330.211C45.5094 330.473 45.6485 330.738 45.9187 330.867C46.0579 331.132 46.1944 331.264 46.3335 331.529C46.3335 331.529 46.4645 331.392 46.4673 331.526L46.47 331.66C46.7456 332.057 47.1523 332.317 47.5616 332.711C47.6981 332.842 47.84 333.241 47.9765 333.372C48.1129 333.504 48.2521 333.769 48.3886 333.9C48.3913 334.034 48.3913 334.034 48.3913 334.034C48.5277 334.165 48.525 334.031 48.525 334.031C48.6615 334.163 48.5277 334.165 48.5277 334.165C48.6642 334.297 48.6642 334.297 48.8034 334.562C48.9425 334.827 48.9453 334.961 49.0817 335.092C49.0845 335.226 49.3519 335.221 49.3547 335.355C49.3574 335.489 49.3628 335.756 49.3656 335.89C49.5102 336.423 49.3819 336.694 49.5211 336.959C49.5238 337.093 49.7967 337.355 49.532 337.495C49.0107 338.174 48.473 338.051 48.0882 338.862C47.4195 338.875 46.7509 338.888 46.0849 339.035C45.6783 338.775 45.4108 338.78 45.2771 338.783C45.2771 338.783 45.1406 338.651 45.0069 338.654C44.8731 338.656 44.6084 338.796 44.3409 338.801C44.2072 338.803 44.2072 338.803 44.0708 338.672C43.937 338.675 43.8033 338.677 43.6696 338.68C43.5358 338.682 43.2629 338.42 43.1292 338.422L42.9982 338.559L42.7253 338.296C42.5888 338.165 42.5915 338.299 42.5915 338.299C42.0539 338.175 41.5108 337.784 41.246 337.923L40.9731 337.661C40.8367 337.529 40.8394 337.663 40.8394 337.663C40.1653 337.408 39.6195 336.883 38.9535 337.03C38.2712 336.373 37.3297 336.124 36.5164 335.604C36.1125 335.478 35.976 335.346 35.8423 335.349C35.5748 335.354 35.4302 334.821 35.1654 334.96C35.1654 334.96 35.029 334.829 34.8952 334.831C34.4913 334.705 34.2184 334.443 33.9455 334.18L33.8118 334.183C33.6753 334.051 33.5416 334.054 33.4078 334.057C33.0039 333.93 32.8648 333.665 32.5946 333.537C32.4608 333.539 32.4608 333.539 32.4608 333.539C32.0569 333.413 31.6475 333.019 31.5111 332.888C31.2409 332.759 31.2436 332.893 30.9734 332.764C30.433 332.507 29.8927 332.249 29.3523 331.992C29.0821 331.863 28.8147 331.869 28.5445 331.74C28.2743 331.611 28.0014 331.348 27.5974 331.222C27.5974 331.222 27.33 331.228 27.1963 331.23C27.0625 331.233 27.0598 331.099 26.926 331.101C26.6531 330.839 26.1182 330.849 25.7116 330.589C25.9899 331.12 26.1155 330.715 25.9736 330.316Z" fill="#DDE1F0"/>
<path fill-rule="evenodd" clip-rule="evenodd" d="M19.1264 389.609C18.9899 389.478 18.7198 389.349 18.5833 389.218C18.7143 389.081 18.4468 389.086 18.4441 388.953C18.4441 388.953 18.5751 388.816 18.5724 388.682C18.5697 388.548 18.4332 388.417 18.4305 388.283C17.8874 387.892 18.0157 387.622 18.0075 387.22C18.1385 387.083 18.2695 386.947 18.4033 386.944L18.5343 386.808L18.6707 386.939L18.8017 386.803L19.7405 386.918C19.8742 386.916 19.877 387.05 20.0107 387.047C20.1444 387.045 20.2781 387.042 20.4119 387.039C20.682 387.168 20.8185 387.299 20.9522 387.297C21.086 387.294 21.0859 387.294 21.0859 387.294C21.3561 387.423 21.6236 387.418 21.76 387.549C21.8965 387.68 21.8937 387.546 21.8937 387.546C22.2976 387.672 22.3031 387.94 22.5705 387.935C22.5705 387.935 22.707 388.066 22.8407 388.064C23.3784 388.187 24.1889 388.573 24.3172 388.303C24.3172 388.303 24.1725 387.77 24.0388 387.773C24.4345 387.497 23.8914 387.106 23.8887 386.972C23.7468 386.573 23.6077 386.308 23.6022 386.04C24.2572 385.358 25.065 385.61 25.7254 385.195C25.5863 384.93 25.4444 384.531 25.3052 384.266C25.5672 383.993 25.0241 383.601 25.1524 383.331C24.7458 383.071 24.8714 382.667 24.8659 382.399C24.8632 382.265 24.5957 382.27 24.7267 382.134C24.8577 381.997 24.724 382 24.724 382C24.8305 380.659 26.9837 381.287 27.4012 382.082C27.5431 382.481 27.6823 382.746 27.8242 383.145C27.9634 383.411 28.2417 383.941 28.2445 384.075C28.3809 384.206 28.3836 384.34 28.5201 384.471C28.5228 384.605 28.6592 384.736 28.6592 384.736C28.9349 385.133 29.4807 385.658 29.6199 385.923C29.759 386.188 29.7645 386.456 29.9009 386.587C30.444 386.979 30.5886 387.512 30.7251 387.643C30.8615 387.774 30.998 387.906 31.0007 388.039C31.0089 388.441 31.6857 388.83 32.095 389.224C32.2342 389.489 32.2397 389.757 32.3761 389.888C32.9137 390.011 33.0611 390.678 33.6041 391.069C34.2864 391.726 34.9659 392.248 35.3753 392.642C35.6482 392.905 36.0521 393.031 36.0575 393.299C36.194 393.43 36.063 393.567 36.0657 393.7C36.0657 393.7 36.2021 393.832 36.3359 393.829C36.3386 393.963 36.4778 394.228 36.3468 394.365C36.6224 394.761 36.6305 395.163 36.636 395.431C36.2403 395.706 36.3822 396.105 36.1174 396.244C35.7217 396.52 35.7244 396.654 35.4597 396.793C35.195 396.932 34.9303 397.071 34.6683 397.344C34.3954 397.081 34.1307 397.22 33.8605 397.092C33.5903 396.963 33.1837 396.703 32.9135 396.574C32.6433 396.446 32.3731 396.317 31.9692 396.191C31.6991 396.062 31.4316 396.067 31.2952 395.936C31.1587 395.805 31.1615 395.939 31.1615 395.939C30.8913 395.81 30.4819 395.416 30.2145 395.421C30.0807 395.424 30.0807 395.424 30.0807 395.424C29.947 395.426 29.8106 395.295 29.6769 395.298C29.1365 395.04 28.4651 394.919 28.0585 394.659C27.9221 394.528 27.9248 394.662 27.9248 394.662C27.5209 394.536 27.6519 394.399 27.3844 394.405C27.2507 394.407 27.2507 394.407 27.2507 394.407C26.7131 394.284 25.6297 393.635 25.2285 393.643L25.0921 393.511C24.418 393.257 23.8749 392.865 23.2008 392.611C22.9306 392.482 22.6605 392.353 22.393 392.358C21.4488 391.975 20.3708 391.594 19.2901 391.079C19.0145 390.683 19.009 390.415 19.0036 390.147C19.2656 389.874 19.1291 389.743 19.1264 389.609Z" fill="#DDE1F0"/>
<path fill-rule="evenodd" clip-rule="evenodd" d="M45.6884 366.059C45.8275 366.324 46.095 366.319 46.3651 366.448C46.5015 366.579 46.9081 366.839 47.1701 366.566C47.2957 366.162 46.7554 365.905 46.6162 365.64C46.7472 365.503 46.608 365.238 46.6053 365.104C46.6026 364.97 46.5971 364.703 46.458 364.437C46.3161 364.039 46.0405 363.642 45.8986 363.243C46.2916 362.834 46.2807 362.298 46.5481 362.293L46.679 362.157L46.8155 362.288L46.9465 362.152C47.2112 362.012 47.4813 362.141 47.6123 362.005C47.8825 362.133 48.0216 362.398 48.2918 362.527C48.6984 362.787 48.8321 362.785 48.8348 362.918C48.8375 363.052 49.2414 363.178 49.2441 363.312L49.1158 363.582C49.2523 363.714 49.3832 363.577 49.386 363.711C49.3887 363.845 49.3914 363.979 49.5251 363.976C49.6616 364.108 49.5279 364.11 49.5279 364.11C49.6643 364.241 50.0709 364.501 50.2073 364.633C50.3438 364.764 50.2128 364.9 50.3492 365.032C50.3492 365.032 50.4857 365.163 50.6194 365.16C50.7585 365.425 50.7612 365.559 50.9004 365.824C51.0396 366.09 51.4434 366.216 51.5826 366.481C51.8555 366.743 51.9973 367.142 52.2729 367.539C52.4094 367.67 52.816 367.93 52.9524 368.061C53.0888 368.192 53.0943 368.46 53.2307 368.591C53.7847 369.518 55.0017 370.164 55.5501 370.823L55.5528 370.957C55.6893 371.088 55.692 371.222 55.8285 371.353C55.8312 371.487 55.9649 371.484 55.9676 371.618C55.8366 371.755 56.104 371.75 56.2432 372.015C56.2487 372.282 56.1177 372.419 55.9894 372.689L56.1286 372.954C56.1313 373.088 56.0003 373.225 55.8666 373.227C55.8693 373.361 55.8693 373.361 55.8693 373.361C55.4791 373.904 54.8241 374.587 54.2975 374.998C53.2223 374.751 52.27 373.966 51.4541 373.313C51.3177 373.181 51.0502 373.187 50.9111 372.922C50.6409 372.793 50.5018 372.528 50.2289 372.265C49.8223 372.005 49.4212 372.013 49.0146 371.753C48.8809 371.756 48.8782 371.622 48.7418 371.491C48.6053 371.359 48.4716 371.362 48.3379 371.364C48.2042 371.367 48.2042 371.367 48.2042 371.367C48.0677 371.236 48.1987 371.099 47.9313 371.105L47.6584 370.842C47.522 370.711 47.5247 370.845 47.5247 370.845C47.1208 370.719 47.1181 370.585 46.8507 370.59C46.8507 370.59 46.7143 370.459 46.5806 370.461C46.3104 370.333 45.7728 370.209 45.6337 369.944C45.2271 369.684 45.4863 369.277 45.4782 368.876C45.077 368.883 45.339 368.61 44.9351 368.484C44.927 368.083 45.0552 367.813 44.9133 367.414C44.6405 367.151 44.5013 366.886 44.6269 366.482C44.8861 366.075 45.1562 366.204 45.4209 366.065C45.5547 366.062 45.6857 365.926 45.8166 365.789C45.421 366.065 45.5601 366.33 45.6884 366.059Z" fill="#DDE1F0"/>
<path fill-rule="evenodd" clip-rule="evenodd" d="M77.7603 383.755C77.8994 384.02 78.1668 384.015 78.437 384.143C78.5734 384.275 78.98 384.535 79.242 384.262C79.3675 383.857 78.8272 383.6 78.6881 383.335C78.8191 383.198 78.6799 382.933 78.6772 382.8C78.6744 382.666 78.669 382.398 78.5298 382.133C78.388 381.734 78.1123 381.337 77.9705 380.938C78.3634 380.529 78.3525 379.994 78.6199 379.988L78.7509 379.852L78.8874 379.983L79.0184 379.847C79.2831 379.708 79.5532 379.836 79.6842 379.7C79.9543 379.829 80.0935 380.094 80.3637 380.222C80.7702 380.482 80.904 380.48 80.9067 380.614C80.9094 380.748 81.3133 380.874 81.316 381.007L81.1877 381.278C81.3242 381.409 81.4551 381.273 81.4579 381.406C81.4606 381.54 81.4633 381.674 81.597 381.672C81.7335 381.803 81.5998 381.805 81.5998 381.805C81.7362 381.937 82.1428 382.197 82.2792 382.328C82.4157 382.459 82.2847 382.596 82.4211 382.727C82.4211 382.727 82.5575 382.858 82.6912 382.856C82.8304 383.121 82.8331 383.255 82.9723 383.52C83.1115 383.785 83.5153 383.911 83.6545 384.176C83.9274 384.439 84.0692 384.838 84.3448 385.234C84.4813 385.365 84.8879 385.625 85.0243 385.756C85.1607 385.888 85.1662 386.155 85.3026 386.287C85.8565 387.213 87.0736 387.859 87.622 388.518L87.6247 388.652C87.7612 388.783 87.7639 388.917 87.9003 389.048C87.9031 389.182 88.0368 389.18 88.0395 389.314C87.9085 389.45 88.1759 389.445 88.3151 389.71C88.3206 389.978 88.1896 390.114 88.0613 390.384L88.2005 390.65C88.2032 390.783 88.0722 390.92 87.9385 390.922C87.9412 391.056 87.9412 391.056 87.9412 391.056C87.551 391.6 86.896 392.282 86.3694 392.694C85.2942 392.447 84.3419 391.662 83.526 391.008C83.3896 390.877 83.1221 390.882 82.983 390.617C82.7128 390.488 82.5737 390.223 82.3008 389.961C81.8942 389.701 81.4931 389.708 81.0865 389.448C80.9528 389.451 80.9501 389.317 80.8136 389.186C80.6772 389.055 80.5435 389.057 80.4098 389.06C80.2761 389.062 80.2761 389.062 80.2761 389.062C80.1396 388.931 80.2706 388.795 80.0032 388.8L79.7303 388.537C79.5939 388.406 79.5966 388.54 79.5966 388.54C79.1927 388.414 79.19 388.28 78.9226 388.285C78.9226 388.285 78.7862 388.154 78.6525 388.156C78.3823 388.028 77.8447 387.904 77.7056 387.639C77.299 387.379 77.5582 386.972 77.5501 386.571C77.1489 386.579 77.4109 386.306 77.007 386.18C76.9989 385.778 77.1271 385.508 76.9852 385.109C76.7124 384.846 76.5732 384.581 76.6987 384.177C76.958 383.77 77.2281 383.899 77.4928 383.76C77.6266 383.757 77.7575 383.621 77.8885 383.484C77.3564 383.629 77.6293 383.891 77.7603 383.755Z" fill="#DDE1F0"/>
<path fill-rule="evenodd" clip-rule="evenodd" d="M84.4283 355.517C84.2919 355.386 84.4256 355.383 84.5566 355.247C84.5539 355.113 84.5512 354.979 84.5484 354.845C84.5457 354.711 84.6767 354.575 84.674 354.441C84.6713 354.307 84.5348 354.176 84.7995 354.037C84.6576 353.637 84.251 353.377 84.9087 352.829C84.8978 352.293 84.483 351.632 84.876 351.222C85.138 350.95 85.1408 351.083 85.2745 351.081C85.6756 351.073 86.0768 351.065 86.4807 351.191C86.6144 351.189 86.8819 351.184 87.0156 351.181L87.4195 351.307C87.5559 351.438 87.8207 351.299 87.9571 351.431C88.0936 351.562 88.0908 351.428 88.0908 351.428C88.2245 351.425 88.4974 351.688 88.6312 351.685C88.7649 351.683 88.8959 351.546 89.0323 351.678C89.1688 351.809 89.1661 351.675 89.1661 351.675C89.4362 351.804 89.7064 351.932 89.8428 352.064C90.2467 352.19 90.5169 352.318 90.6506 352.316C90.7844 352.313 90.6561 352.584 90.6534 352.45C91.06 352.71 91.5921 352.565 91.8705 353.096C92.1352 352.957 92.4054 353.085 92.6755 353.214C93.3496 353.469 94.1656 354.123 94.8396 354.378C95.2381 354.236 95.2408 354.37 95.3664 353.966C95.4919 353.561 95.088 353.435 94.9516 353.304C94.6759 352.907 94.6759 352.907 94.403 352.645C94.2666 352.514 94.4003 352.511 94.4003 352.511C94.1247 352.115 93.7154 351.721 93.5762 351.456C93.3006 351.059 93.1668 351.062 92.8939 350.799C92.4873 350.539 92.3509 350.408 92.3454 350.14C92.3427 350.006 92.078 350.145 92.2117 350.143C92.0753 350.011 92.0725 349.878 91.9361 349.746C91.6632 349.484 91.524 349.218 91.1201 349.092C91.101 348.155 89.8894 347.777 89.3408 347.118C89.2044 346.987 89.0625 346.588 89.0598 346.454C88.9233 346.322 89.0571 346.32 89.0571 346.32C88.9152 345.921 88.645 345.792 88.5058 345.527C88.5058 345.527 88.6368 345.39 88.6341 345.257C88.6341 345.257 88.4976 345.125 88.3639 345.128C88.3612 344.994 88.4922 344.858 88.3557 344.726C88.8743 343.913 88.9971 343.374 89.5184 342.695C89.6548 342.826 89.7886 342.823 89.7913 342.957C90.056 342.818 90.4681 343.346 90.741 343.609C91.1476 343.869 91.5515 343.995 91.6906 344.26C91.8271 344.391 91.6934 344.394 91.8298 344.525C91.9663 344.656 92.1027 344.788 92.2392 344.919C92.3756 345.05 92.2419 345.053 92.3783 345.184C92.5148 345.315 92.6458 345.179 92.7822 345.31C92.9187 345.441 92.785 345.444 92.9214 345.575C93.197 345.972 93.7346 346.095 94.0102 346.492C94.4141 346.618 93.751 346.898 94.2886 347.022C94.9654 347.411 95.3775 347.938 95.7895 348.466C96.3353 348.991 97.0148 349.514 97.4269 350.042C97.6998 350.304 97.5715 350.574 97.839 350.569C97.9727 350.567 97.8444 350.837 97.8417 350.703C98.1173 351.1 97.9809 350.968 98.3848 351.094C98.3848 351.094 98.5212 351.226 98.6549 351.223C98.6549 351.223 98.6604 351.491 98.6576 351.357C98.7941 351.488 98.9278 351.486 99.0615 351.483L99.0643 351.617C99.067 351.751 99.2007 351.748 99.3344 351.746C99.7438 352.14 100.017 352.402 100.29 352.665C100.426 352.796 100.429 352.93 100.565 353.061C100.702 353.192 100.969 353.187 101.106 353.319C101.242 353.45 101.245 353.584 101.381 353.715C101.654 353.978 101.657 354.111 101.793 354.243C101.93 354.374 102.063 354.371 102.197 354.369C102.197 354.369 102.334 354.5 102.467 354.497C102.74 354.76 102.746 355.028 103.019 355.29C103.291 355.553 103.556 355.414 103.562 355.682C103.564 355.816 104.105 356.073 104.241 356.204C104.38 356.469 104.519 356.735 104.792 356.997C105.202 357.391 105.196 357.123 105.202 357.391C105.204 357.525 105.608 357.651 105.611 357.785C105.747 357.916 105.614 357.919 105.75 358.05C106.16 358.444 106.432 358.706 106.438 358.974L106.574 359.105C106.577 359.239 106.446 359.376 106.716 359.504C106.989 359.767 106.591 359.909 106.995 360.035C106.997 360.169 106.73 360.174 106.733 360.308C106.735 360.442 106.869 360.439 106.872 360.573C106.877 360.841 106.746 360.977 106.885 361.242C106.492 361.652 106.498 361.92 106.236 362.192C105.712 362.738 104.907 362.62 104.383 363.166C104.11 362.903 103.711 363.045 103.578 363.048C103.444 363.05 103.305 362.785 103.168 362.654L103.035 362.656C103.035 362.656 102.901 362.659 102.898 362.525C102.762 362.394 102.764 362.528 102.764 362.528C102.494 362.399 102.088 362.139 101.818 362.01C101.684 362.013 101.684 362.013 101.684 362.013C101.146 361.889 100.868 361.359 100.327 361.102L100.194 361.104C100.06 361.107 100.057 360.973 99.9236 360.976C99.7899 360.978 99.7899 360.978 99.7899 360.978C99.6562 360.981 99.6507 360.713 99.517 360.716C99.3833 360.718 99.1186 360.857 99.1186 360.857C98.7174 360.865 98.7174 360.865 98.4527 361.004C98.3189 361.007 98.3189 361.007 98.3189 361.007C97.7895 361.285 97.5275 361.558 97.1291 361.699C96.8589 361.571 96.7225 361.439 96.5887 361.442L96.324 361.581C96.1903 361.584 96.0538 361.452 96.0511 361.319C95.6445 361.059 95.3743 360.93 94.9704 360.804C94.8367 360.806 94.703 360.809 94.7002 360.675C94.5638 360.544 94.6948 360.407 94.4274 360.412L94.0235 360.286C93.8897 360.289 93.887 360.155 93.7533 360.158C92.8063 359.64 91.8594 359.123 90.9124 358.606C90.5058 358.346 90.3694 358.214 90.1046 358.353C90.1046 358.353 89.9682 358.222 89.8345 358.225C89.4279 357.965 89.2914 357.833 89.1577 357.836C89.0212 357.705 88.8848 357.573 88.7483 357.442C88.3417 357.182 87.9378 357.056 87.8014 356.925C87.6649 356.794 87.5285 356.662 87.392 356.531C86.7125 356.008 85.771 355.759 85.2252 355.234C84.5675 355.782 84.4311 355.651 84.4283 355.517Z" fill="#DDE1F0"/>
<path fill-rule="evenodd" clip-rule="evenodd" d="M45.4762 408.891C45.4707 408.623 46.0001 408.345 45.8637 408.213C45.7245 407.948 45.7163 407.547 45.7082 407.145C45.7082 407.145 45.7027 406.877 45.8364 406.875C45.9647 406.604 45.6918 406.342 45.9538 406.069C46.2158 405.796 45.5418 405.541 45.9375 405.265C46.0739 405.397 46.4723 405.255 46.4723 405.255C46.4723 405.255 46.6087 405.386 46.7425 405.384C46.8762 405.381 46.8734 405.247 47.0071 405.245C47.1408 405.242 47.4137 405.505 47.5474 405.502C47.8176 405.631 48.0877 405.76 48.2214 405.757C48.6226 405.749 49.0292 406.009 49.1629 406.007C49.7005 406.13 50.3772 406.519 50.9066 406.241C51.0294 405.702 50.7511 405.172 51.1386 404.495C51.275 404.626 51.406 404.49 51.5343 404.219C51.9354 404.212 52.3393 404.338 52.5985 403.931C52.5931 403.663 52.7214 403.393 52.7159 403.125C52.7132 402.991 52.7105 402.857 52.7077 402.723C52.7077 402.723 52.7023 402.456 52.836 402.453C52.967 402.317 52.9615 402.049 52.9588 401.915C52.9561 401.781 52.9533 401.647 52.9506 401.513C53.0762 401.109 53.2071 400.973 53.4664 400.566C53.6028 400.697 53.5974 400.429 53.7311 400.427C53.7311 400.427 53.8676 400.558 54.0013 400.555C54.135 400.553 54.266 400.416 54.4024 400.548C54.5388 400.679 54.5361 400.545 54.5361 400.545C55.0764 400.802 55.221 401.335 55.6303 401.729C55.4993 401.866 55.7695 401.994 55.7722 402.128C55.7749 402.262 55.6467 402.532 55.7831 402.664C56.1897 402.924 56.2033 403.593 56.4762 403.856C56.6126 403.987 56.7491 404.118 56.8882 404.383C57.0247 404.515 56.8937 404.651 57.1638 404.78C57.3003 404.911 57.1666 404.914 57.1666 404.914C57.4422 405.31 57.715 405.573 57.9906 405.969C57.8597 406.106 58.1298 406.234 58.0015 406.505C58.2717 406.633 58.2799 407.035 58.4163 407.166C58.5555 407.432 58.9593 407.558 59.0985 407.823C59.0985 407.823 59.1039 408.091 59.1067 408.224C59.2485 408.623 59.7916 409.015 59.797 409.283C59.9416 409.815 60.4874 410.341 60.3646 410.879C60.501 411.01 60.6375 411.141 60.7739 411.273C60.7739 411.273 60.7793 411.54 60.7821 411.674C60.7848 411.808 60.9185 411.805 61.0522 411.803C61.1886 411.934 61.0549 411.937 61.0549 411.937C61.1941 412.202 61.1968 412.336 61.3333 412.467C61.6061 412.73 61.6061 412.73 61.7453 412.995C61.7453 412.995 61.7507 413.263 61.7535 413.396C61.8926 413.662 62.1628 413.79 62.0318 413.927C61.9008 414.063 62.171 414.192 62.1737 414.326C62.1819 414.727 61.9117 414.599 61.7862 415.003C61.9253 415.268 61.6634 415.541 61.5351 415.811C61.3987 415.68 61.4014 415.814 61.2704 415.951C61.0057 416.09 60.6073 416.231 60.3426 416.37L60.2062 416.239C60.2062 416.239 60.0752 416.376 60.0779 416.509C59.9469 416.646 59.8105 416.515 59.6768 416.517C59.6768 416.517 59.5458 416.654 59.5485 416.788C59.4175 416.924 59.2865 417.06 59.1528 417.063C58.4788 416.808 57.8048 416.553 56.9943 416.167C56.454 415.91 56.0475 415.65 55.6409 415.39C55.5044 415.259 55.5071 415.393 55.5071 415.393C54.8331 415.138 54.4211 414.61 53.7471 414.355C53.3405 414.095 52.9366 413.969 52.6665 413.841C52.1235 413.449 51.5777 412.924 51.0347 412.533C50.4916 412.142 49.5448 411.624 49.1409 411.498C48.4669 411.243 48.1885 410.713 47.6482 410.456L47.5146 410.458C47.1107 410.332 47.108 410.198 46.8378 410.07C46.5677 409.941 46.172 410.216 45.8964 409.82C45.8909 409.552 46.0192 409.282 46.0137 409.014C45.7463 409.019 45.4762 408.891 45.4762 408.891Z" fill="#DDE1F0"/>
<path fill-rule="evenodd" clip-rule="evenodd" d="M70.881 414.405C71.012 414.268 70.7445 414.274 70.7418 414.14C70.7418 414.14 70.8728 414.003 70.8701 413.869C70.8646 413.602 70.8619 413.468 70.8592 413.334C70.5917 413.339 70.1824 412.945 69.9095 412.683C70.2997 412.139 70.6955 411.864 70.9629 411.859C71.7625 411.709 71.8962 411.707 72.4366 411.964C72.573 412.095 72.8404 412.09 72.9742 412.087C73.3781 412.214 74.0521 412.468 74.1858 412.466L74.4587 412.728C74.5952 412.86 74.5924 412.726 74.5924 412.726C74.8626 412.854 74.9991 412.986 75.1328 412.983C75.5367 413.109 75.9406 413.235 76.3472 413.495C76.7511 413.621 77.4279 414.01 77.5616 414.007C77.5616 414.007 77.698 414.139 77.8317 414.136C77.8317 414.136 77.829 414.002 77.9627 414C77.9627 414 78.0992 414.131 78.2329 414.128C78.5031 414.257 78.7732 414.386 78.907 414.383L79.1798 414.646C79.3163 414.777 79.3136 414.643 79.3136 414.643C79.8539 414.9 80.397 415.292 80.7954 415.15C80.9291 415.147 80.9264 415.014 81.0601 415.011C81.1857 414.607 80.3752 414.221 80.9019 413.809C81.2894 413.132 81.827 413.255 82.2173 412.712C81.3959 411.79 80.5718 410.735 80.0205 409.942C79.8814 409.677 79.7395 409.278 79.6057 409.28C79.4693 409.149 79.3383 409.285 79.3356 409.152L79.3328 409.018C79.1964 408.886 79.0627 408.889 79.06 408.755L79.1909 408.619C79.1882 408.485 78.7843 408.359 78.7816 408.225C78.3696 407.697 77.8238 407.172 77.6819 406.773L77.8101 406.503C77.6737 406.371 77.5427 406.508 77.54 406.374L77.5372 406.24C77.3981 405.975 77.1252 405.712 76.986 405.447C77.2453 405.04 77.1007 404.507 77.4964 404.232C77.6274 404.095 77.7611 404.093 77.8921 403.956C78.4215 403.678 78.8254 403.804 79.2266 403.796C79.4995 404.059 80.1763 404.448 80.3154 404.713C80.4519 404.844 80.3181 404.847 80.3181 404.847C80.4546 404.978 80.4546 404.978 80.5938 405.243C81.1423 405.902 81.6908 406.561 82.1001 406.955C82.1028 407.089 82.1028 407.089 82.1028 407.089C82.3812 407.619 82.7878 407.879 83.0634 408.276C83.2026 408.541 83.3418 408.806 83.6146 409.069C83.8875 409.331 84.4333 409.856 84.5698 409.988C84.5725 410.121 84.5725 410.121 84.5725 410.121C84.8481 410.518 85.3884 410.775 85.6668 411.306L85.6695 411.439C85.6722 411.573 85.806 411.571 85.9397 411.568C86.0761 411.699 86.2153 411.965 86.2153 411.965C86.3518 412.096 86.4909 412.361 86.7638 412.624C86.9003 412.755 86.7665 412.757 86.7665 412.757C87.1786 413.285 87.5852 413.545 87.8608 413.942C88.1337 414.204 88.2756 414.603 88.4121 414.734C88.5485 414.866 88.5458 414.732 88.5458 414.732C88.6795 414.729 88.6849 414.997 88.6849 414.997C88.9578 415.26 89.097 415.525 89.3699 415.787C89.6428 416.05 89.9157 416.312 90.0549 416.578C90.1913 416.709 90.0603 416.845 90.063 416.979C90.0658 417.113 90.3387 417.376 90.3387 417.376C90.4751 417.507 90.6088 417.504 90.6115 417.638C91.0209 418.032 90.8926 418.302 91.2992 418.562C91.1737 418.967 91.452 419.497 91.4602 419.899C91.4656 420.166 91.3347 420.303 91.3374 420.437C91.3374 420.437 91.4738 420.568 91.4711 420.434C91.4765 420.702 91.4902 421.371 91.3619 421.642C91.2309 421.778 91.3646 421.775 91.3646 421.775C91.3673 421.909 91.1026 422.048 90.9716 422.185C90.8406 422.321 90.9771 422.453 90.8461 422.589C90.7151 422.726 90.5814 422.728 90.4504 422.865C90.1884 423.138 89.9237 423.277 89.7927 423.413C89.6589 423.416 89.6644 423.683 89.5307 423.686C89.3969 423.689 89.1268 423.56 89.1322 423.828C88.7284 423.702 88.1935 423.712 87.9206 423.449C87.6504 423.321 87.6531 423.455 87.383 423.326C87.2465 423.195 87.1155 423.331 86.8481 423.336C86.4442 423.21 86.174 423.081 85.6337 422.824C85.2298 422.698 84.6895 422.441 84.4193 422.312C83.8762 421.921 83.4669 421.527 83.063 421.401C82.9293 421.403 82.9293 421.403 82.9293 421.403C82.2552 421.149 81.8459 420.755 81.4393 420.495C81.1691 420.366 80.9017 420.371 80.6315 420.243C80.3613 420.114 80.2222 419.849 79.9493 419.586L79.8155 419.589C79.005 419.203 78.1945 418.817 77.3813 418.297C77.2449 418.165 77.1139 418.302 76.9774 418.171C76.841 418.039 76.7045 417.908 76.4344 417.779C76.1642 417.651 75.894 417.522 75.4901 417.396C75.22 417.267 74.9471 417.005 74.5432 416.878C74.4068 416.747 74.2758 416.884 74.1393 416.752C73.7327 416.492 73.4625 416.364 73.1924 416.235C73.0559 416.104 72.9195 415.972 72.6493 415.844C72.2427 415.584 71.7078 415.594 71.4349 415.332C71.5632 415.061 71.2849 414.531 70.881 414.405Z" fill="#DDE1F0"/>
<path fill-rule="evenodd" clip-rule="evenodd" d="M99.7601 386.127C99.6209 385.862 100.017 385.586 99.7437 385.324C99.067 384.935 99.0561 384.4 99.1816 383.995C99.3181 384.127 99.3153 383.993 99.4463 383.856C99.58 383.854 99.8474 383.849 99.8447 383.715C100.107 383.442 100.249 383.841 100.374 383.437C100.513 383.702 100.914 383.694 101.182 383.689C101.315 383.686 101.452 383.818 101.586 383.815C101.719 383.812 101.853 383.81 101.987 383.807C102.391 383.933 103.332 384.183 103.468 384.314C103.605 384.445 103.602 384.311 103.602 384.311C103.872 384.44 104.145 384.703 104.549 384.829C104.819 384.958 105.089 385.086 105.351 384.813C104.942 384.419 104.664 383.889 104.519 383.356C104.781 383.083 104.642 382.818 104.77 382.548C104.901 382.411 105.299 382.27 105.027 382.007C104.882 381.474 104.344 381.351 103.935 380.957C103.799 380.826 103.657 380.427 103.52 380.295C103.245 379.899 102.972 379.636 102.969 379.502C102.969 379.502 102.833 379.371 102.699 379.374C102.696 379.24 102.694 379.106 102.691 378.972C102.552 378.707 102.282 378.578 102.142 378.313L102.271 378.043C102.268 377.909 102.132 377.778 101.995 377.646C101.99 377.379 102.118 377.108 101.981 376.977C102.11 376.707 102.243 376.704 102.377 376.702C102.377 376.702 102.374 376.568 102.508 376.565C102.639 376.429 102.642 376.563 102.642 376.563C102.773 376.426 102.904 376.29 103.038 376.287C103.038 376.287 103.174 376.418 103.308 376.416C103.308 376.416 103.439 376.279 103.436 376.145C103.703 376.14 103.837 376.138 103.973 376.269C104.11 376.4 104.244 376.398 104.377 376.395C104.377 376.395 104.645 376.39 104.511 376.392C104.647 376.524 104.789 376.923 105.062 377.185C105.338 377.582 105.335 377.448 105.605 377.576C105.742 377.708 105.608 377.71 105.744 377.842C106.017 378.104 106.156 378.369 106.432 378.766C106.705 379.028 106.847 379.427 107.12 379.69C107.256 379.821 107.39 379.819 107.66 379.947L107.663 380.081C107.799 380.212 107.935 380.344 107.938 380.478C108.214 380.874 108.339 380.47 108.347 380.871L108.484 381.003C108.757 381.265 109.03 381.528 109.305 381.924C109.578 382.187 109.72 382.586 109.993 382.848C110.266 383.111 110.536 383.24 110.809 383.502C110.809 383.502 110.678 383.639 110.811 383.636C110.811 383.636 110.942 383.5 110.945 383.633C111.352 383.893 111.491 384.159 111.63 384.424C112.315 385.214 113.543 386.395 113.957 387.057C114.094 387.188 114.228 387.186 114.233 387.453L114.37 387.585C114.506 387.716 114.642 387.847 114.645 387.981C114.648 388.115 114.653 388.383 114.787 388.38C114.923 388.511 115.057 388.509 115.06 388.643C114.664 388.918 114.937 389.181 115.076 389.446C114.681 389.721 115.488 389.974 115.357 390.11C115.226 390.247 115.229 390.38 115.101 390.651C114.97 390.787 115.24 390.916 115.112 391.186C114.981 391.323 115.117 391.454 115.123 391.722C115.259 391.853 114.994 391.992 115.133 392.257C114.74 392.667 114.35 393.21 114.091 393.617C113.417 393.362 112.746 393.241 112.206 392.984C112.072 392.986 112.072 392.986 112.072 392.986C111.534 392.863 111.264 392.734 110.86 392.608C110.456 392.482 109.78 392.093 109.515 392.232C109.381 392.235 109.248 392.237 108.98 392.243C108.846 392.245 108.844 392.111 108.71 392.114C108.576 392.117 108.443 392.119 108.309 392.122C108.175 392.124 108.173 391.99 108.173 391.99C108.039 391.993 108.039 391.993 108.039 391.993C107.501 391.87 107.226 391.473 106.819 391.213C106.683 391.082 106.685 391.216 106.549 391.085C106.279 390.956 106.276 390.822 106.009 390.827L105.872 390.696C105.602 390.567 105.335 390.572 105.065 390.444C104.794 390.315 104.391 390.189 104.118 389.926C103.711 389.666 103.302 389.273 102.762 389.015C102.221 388.758 101.545 388.369 101.135 387.975C101.133 387.841 101.133 387.841 101.133 387.841C100.996 387.71 100.999 387.844 100.999 387.844C100.729 387.715 100.587 387.316 100.186 387.324C100.576 386.781 100.169 386.521 99.7601 386.127Z" fill="#DDE1F0"/>
</g>
</svg>
