<?xml version="1.0" encoding="utf-8"?>
<!DOCTYPE svg PUBLIC "-//W3C//DTD SVG 1.1//EN" "http://www.w3.org/Graphics/SVG/1.1/DTD/svg11.dtd">
<svg version="1.1" id="Main" xmlns="http://www.w3.org/2000/svg" xmlns:xlink="http://www.w3.org/1999/xlink" x="0px" y="0px"
width="142.623px" height="18.611px" viewBox="0 0 142.623 18.611" enable-background="new 0 0 142.623 18.611"
xml:space="preserve">
<g>
<path fill="#EA4335" d="M110.281,9.794c0,2.678-2.095,4.651-4.665,4.651c-2.571,0-4.665-1.973-4.665-4.651
c0-2.696,2.095-4.651,4.665-4.651C108.186,5.143,110.281,7.097,110.281,9.794z M108.239,9.794c0-1.673-1.214-2.818-2.623-2.818
c-1.409,0-2.623,1.145-2.623,2.818c0,1.656,1.214,2.818,2.623,2.818C107.025,12.612,108.239,11.448,108.239,9.794z"/>
<path fill="#FBBC05" d="M120.345,9.794c0,2.678-2.095,4.651-4.665,4.651s-4.665-1.973-4.665-4.651c0-2.694,2.095-4.651,4.665-4.651
S120.345,7.097,120.345,9.794z M118.303,9.794c0-1.673-1.214-2.818-2.623-2.818c-1.409,0-2.623,1.145-2.623,2.818
c0,1.656,1.214,2.818,2.623,2.818C117.089,12.612,118.303,11.448,118.303,9.794z"/>
<path fill="#4285F4" d="M129.99,5.424v8.349c0,3.434-2.025,4.837-4.42,4.837c-2.254,0-3.611-1.508-4.122-2.74l1.778-0.74
c0.317,0.757,1.092,1.65,2.342,1.65c1.533,0,2.483-0.946,2.483-2.726v-0.669h-0.071c-0.457,0.564-1.338,1.057-2.449,1.057
c-2.325,0-4.456-2.025-4.456-4.632c0-2.625,2.13-4.667,4.456-4.667c1.109,0,1.99,0.493,2.449,1.04h0.071V5.426h1.939V5.424z
M128.195,9.811c0-1.638-1.092-2.835-2.483-2.835c-1.409,0-2.589,1.197-2.589,2.835c0,1.621,1.18,2.801,2.589,2.801
C127.103,12.612,128.195,11.431,128.195,9.811z"/>
<path fill="#34A853" d="M133.188,0.53v13.629h-1.992V0.53H133.188z"/>
<path fill="#EA4335" d="M140.95,11.324l1.585,1.057c-0.512,0.757-1.744,2.061-3.875,2.061c-2.642,0-4.615-2.042-4.615-4.651
c0-2.766,1.99-4.651,4.386-4.651c2.413,0,3.594,1.921,3.98,2.958l0.212,0.528l-6.217,2.575c0.476,0.933,1.216,1.409,2.254,1.409
C139.7,12.612,140.421,12.1,140.95,11.324L140.95,11.324z M136.071,9.651l4.156-1.726c-0.229-0.581-0.916-0.985-1.726-0.985
C137.463,6.94,136.018,7.856,136.071,9.651z"/>
<path fill="#4285F4" d="M93.411,8.584V6.611h6.649c0.065,0.344,0.099,0.751,0.099,1.191c0,1.48-0.405,3.311-1.709,4.615
c-1.269,1.321-2.889,2.025-5.036,2.025c-3.98,0-7.326-3.242-7.326-7.221S89.433,0,93.413,0c2.202,0,3.77,0.864,4.948,1.99
l-1.392,1.392c-0.845-0.793-1.99-1.409-3.558-1.409c-2.906,0-5.179,2.342-5.179,5.248s2.273,5.248,5.179,5.248
c1.885,0,2.958-0.757,3.646-1.445c0.558-0.558,0.925-1.354,1.069-2.443L93.411,8.584z"/>
<g>
<g>
<path fill="#7C7C7C" d="M1.486,6.382v1.288h0.033C2.19,6.657,3.087,6.151,4.21,6.151c1.079,0,1.954,0.399,2.625,1.197
c0.671,0.798,1.007,1.748,1.007,2.848c0,1.167-0.33,2.155-0.991,2.964c-0.66,0.809-1.563,1.214-2.708,1.214
c-0.528,0-1.021-0.132-1.478-0.396c-0.457-0.264-0.839-0.622-1.148-1.073H1.486v4.63H0V6.382H1.486z M3.847,13.052
c0.781,0,1.395-0.27,1.841-0.809c0.446-0.539,0.669-1.205,0.669-1.998c0-0.781-0.226-1.439-0.677-1.973
C5.228,7.738,4.617,7.471,3.847,7.471c-0.738,0-1.329,0.272-1.775,0.817s-0.669,1.197-0.669,1.956c0,0.771,0.22,1.431,0.66,1.981
C2.504,12.777,3.098,13.052,3.847,13.052z"/>
<path fill="#7C7C7C" d="M9.799,7.339c0.798-0.792,1.775-1.189,2.931-1.189c1.156,0,2.132,0.396,2.931,1.189
c0.798,0.793,1.197,1.767,1.197,2.922c0,1.156-0.399,2.13-1.197,2.922c-0.798,0.793-1.775,1.189-2.931,1.189
c-1.156,0-2.133-0.396-2.931-1.189c-0.798-0.792-1.197-1.766-1.197-2.922C8.602,9.106,9.001,8.132,9.799,7.339z M14.595,8.363
c-0.517-0.528-1.139-0.792-1.866-0.792c-0.726,0-1.348,0.264-1.866,0.792c-0.518,0.528-0.776,1.162-0.776,1.899
c0,0.726,0.258,1.357,0.776,1.89c0.517,0.534,1.139,0.801,1.866,0.801c0.726,0,1.348-0.267,1.866-0.801
c0.517-0.534,0.776-1.164,0.776-1.89C15.371,9.524,15.112,8.891,14.595,8.363z"/>
<path fill="#7C7C7C" d="M18.607,6.382l2.245,4.92l2.179-4.973h0.391l1.971,4.973l2.245-4.92h1.684l-3.713,7.991l-0.438,0
l-2.041-5.168l-2.068,5.168l-0.469,0l-3.671-7.991H18.607z"/>
<path fill="#7C7C7C" d="M36.851,10.493h-5.894c0.011,0.694,0.231,1.293,0.66,1.8c0.429,0.506,0.985,0.76,1.668,0.76
c0.539,0,0.982-0.124,1.329-0.372c0.347-0.248,0.674-0.625,0.982-1.131l1.255,0.71c-0.363,0.66-0.861,1.178-1.494,1.552
c-0.633,0.374-1.329,0.561-2.089,0.561c-1.156,0-2.078-0.385-2.766-1.156c-0.688-0.77-1.032-1.739-1.032-2.906
c0-1.232,0.325-2.234,0.974-3.005c0.649-0.77,1.579-1.156,2.79-1.156c1.178,0,2.075,0.383,2.691,1.148
c0.616,0.765,0.925,1.753,0.925,2.964V10.493z M31.039,9.37h4.326c-0.088-0.594-0.319-1.065-0.693-1.412
c-0.374-0.347-0.853-0.52-1.437-0.52c-0.572,0-1.059,0.182-1.461,0.545C31.372,8.347,31.127,8.809,31.039,9.37z"/>
<path fill="#7C7C7C" d="M39.707,6.382v1.255h0.049c0.187-0.462,0.465-0.826,0.834-1.09c0.369-0.264,0.795-0.396,1.279-0.396
c0.418,0,0.826,0.127,1.222,0.38l-0.677,1.354c-0.242-0.209-0.545-0.314-0.908-0.314c-0.385,0-0.705,0.08-0.958,0.239
c-0.253,0.16-0.437,0.385-0.553,0.677c-0.116,0.292-0.193,0.578-0.231,0.859c-0.039,0.281-0.058,0.602-0.058,0.966v3.797h-1.486
V6.382H39.707z"/>
<path fill="#7C7C7C" d="M50.703,10.493h-5.894c0.011,0.694,0.231,1.293,0.66,1.8c0.429,0.506,0.985,0.76,1.668,0.76
c0.539,0,0.982-0.124,1.329-0.372c0.347-0.248,0.674-0.625,0.982-1.131l1.255,0.71c-0.363,0.66-0.861,1.178-1.494,1.552
c-0.633,0.374-1.329,0.561-2.089,0.561c-1.156,0-2.078-0.385-2.766-1.156c-0.688-0.77-1.032-1.739-1.032-2.906
c0-1.232,0.325-2.234,0.974-3.005c0.649-0.77,1.579-1.156,2.79-1.156c1.178,0,2.075,0.383,2.691,1.148
c0.616,0.765,0.925,1.753,0.925,2.964V10.493z M44.891,9.37h4.326c-0.088-0.594-0.319-1.065-0.693-1.412
c-0.374-0.347-0.853-0.52-1.437-0.52c-0.572,0-1.059,0.182-1.461,0.545C45.224,8.347,44.979,8.809,44.891,9.37z"/>
<path fill="#7C7C7C" d="M57.736,14.109v-1.205h-0.033c-0.308,0.451-0.691,0.809-1.148,1.073
c-0.457,0.264-0.949,0.396-1.478,0.396c-1.145,0-2.047-0.405-2.708-1.214c-0.66-0.809-0.991-1.797-0.991-2.964
c0-1.1,0.336-2.05,1.007-2.848c0.671-0.798,1.546-1.197,2.625-1.197c1.123,0,2.02,0.506,2.691,1.519h0.033V2.111h1.486v11.998
H57.736z M55.309,13.052c0.781,0,1.395-0.27,1.841-0.809c0.446-0.539,0.669-1.205,0.669-1.998c0-0.781-0.226-1.439-0.677-1.973
c-0.451-0.534-1.062-0.801-1.833-0.801c-0.738,0-1.329,0.272-1.775,0.817c-0.446,0.545-0.669,1.197-0.669,1.956
c0,0.771,0.22,1.431,0.66,1.981C53.966,12.777,54.561,13.052,55.309,13.052z"/>
<path fill="#7C7C7C" d="M65.81,14.109V2.111h1.486v5.559h0.033C68,6.657,68.897,6.151,70.02,6.151
c1.079,0,1.954,0.399,2.625,1.197c0.671,0.798,1.007,1.748,1.007,2.848c0,1.167-0.33,2.155-0.99,2.964
c-0.66,0.809-1.563,1.214-2.708,1.214c-0.528,0-1.021-0.132-1.478-0.396c-0.457-0.264-0.839-0.622-1.148-1.073h-0.033v1.205
H65.81z M69.657,13.052c0.781,0,1.395-0.27,1.841-0.809c0.446-0.539,0.669-1.205,0.669-1.998c0-0.781-0.226-1.439-0.677-1.973
c-0.451-0.534-1.062-0.801-1.833-0.801c-0.738,0-1.329,0.272-1.775,0.817s-0.669,1.197-0.669,1.956
c0,0.771,0.22,1.431,0.66,1.981C68.313,12.777,68.908,13.052,69.657,13.052z"/>
<path fill="#7C7C7C" d="M77.4,12.788l-3.533-6.406H75.6l2.608,4.904l2.427-4.904h1.667l-5.258,11.152h-1.684L77.4,12.788z"/>
</g>
</g>
</g>
</svg>
