<svg xmlns="http://www.w3.org/2000/svg" xmlns:xlink="http://www.w3.org/1999/xlink" width="150" zoomAndPan="magnify" viewBox="0 0 112.5 74.999997" height="100" preserveAspectRatio="xMidYMid meet" version="1.0"><defs><g/></defs><g fill="#000000" fill-opacity="1"><g transform="translate(4.909775, 46.164634)"><g><path d="M -1.28125 0 L 2.921875 -18.25 L 10.234375 -18.25 L 9.421875 -14.71875 L 5.84375 -14.71875 L 5.015625 -11.171875 L 8.453125 -11.171875 L 7.671875 -7.734375 L 4.21875 -7.734375 L 3.25 -3.546875 L 7.078125 -3.546875 L 6.265625 0 Z M -1.28125 0 "/></g></g></g><g fill="#000000" fill-opacity="1"><g transform="translate(13.657664, 46.164634)"><g><path d="M -1.28125 0 L 2.921875 -18.25 L 6.578125 -18.25 L 3.09375 -3.109375 L 6.859375 -3.109375 L 6.140625 0 Z M -1.28125 0 "/></g></g></g><g fill="#000000" fill-opacity="1"><g transform="translate(22.087076, 46.164634)"><g><path d="M -1.28125 0 L 2.921875 -18.25 L 10.234375 -18.25 L 9.421875 -14.71875 L 5.84375 -14.71875 L 5.015625 -11.171875 L 8.453125 -11.171875 L 7.671875 -7.734375 L 4.21875 -7.734375 L 3.25 -3.546875 L 7.078125 -3.546875 L 6.265625 0 Z M -1.28125 0 "/></g></g></g><g fill="#000000" fill-opacity="1"><g transform="translate(30.834965, 46.164634)"><g><path d="M 2.921875 0.171875 C 1.585938 0.171875 0.617188 -0.242188 0.015625 -1.078125 C -0.585938 -1.921875 -0.722656 -3.070312 -0.390625 -4.53125 L 1.546875 -12.9375 C 1.972656 -14.75 2.648438 -16.113281 3.578125 -17.03125 C 4.515625 -17.957031 5.753906 -18.421875 7.296875 -18.421875 C 8.648438 -18.421875 9.648438 -18.050781 10.296875 -17.3125 C 10.953125 -16.582031 11.117188 -15.519531 10.796875 -14.125 L 10.0625 -10.984375 L 6.4375 -10.984375 L 7.078125 -13.6875 C 7.179688 -14.207031 7.191406 -14.566406 7.109375 -14.765625 C 7.035156 -14.960938 6.847656 -15.0625 6.546875 -15.0625 C 6.210938 -15.0625 5.957031 -14.945312 5.78125 -14.71875 C 5.601562 -14.5 5.46875 -14.171875 5.375 -13.734375 L 3.25 -4.5625 C 3.144531 -4.082031 3.132812 -3.734375 3.21875 -3.515625 C 3.3125 -3.296875 3.5 -3.1875 3.78125 -3.1875 C 4.34375 -3.1875 4.734375 -3.644531 4.953125 -4.5625 L 5.703125 -7.859375 L 9.390625 -7.859375 L 8.59375 -4.421875 C 7.882812 -1.359375 5.992188 0.171875 2.921875 0.171875 Z M 2.921875 0.171875 "/></g></g></g><g fill="#000000" fill-opacity="1"><g transform="translate(40.899288, 46.164634)"><g><path d="M 0.28125 0 L 3.671875 -14.75 L 1.515625 -14.75 L 2.3125 -18.25 L 10.3125 -18.25 L 9.5 -14.75 L 7.328125 -14.75 L 3.9375 0 Z M 0.28125 0 "/></g></g></g><g fill="#000000" fill-opacity="1"><g transform="translate(49.307459, 46.164634)"><g><path d="M 2.921875 -18.25 L 8.53125 -18.25 C 9.425781 -18.25 10.070312 -18.046875 10.46875 -17.640625 C 10.863281 -17.242188 11.0625 -16.679688 11.0625 -15.953125 C 11.0625 -15.222656 10.9375 -14.289062 10.6875 -13.15625 C 10.445312 -12.125 10.125 -11.316406 9.71875 -10.734375 C 9.3125 -10.148438 8.75 -9.742188 8.03125 -9.515625 C 8.550781 -9.398438 8.882812 -9.125 9.03125 -8.6875 C 9.1875 -8.25 9.175781 -7.65625 9 -6.90625 L 7.375 0 L 3.796875 0 L 5.4375 -7.140625 C 5.5625 -7.648438 5.535156 -7.972656 5.359375 -8.109375 C 5.191406 -8.253906 4.847656 -8.328125 4.328125 -8.328125 L 2.421875 0 L -1.28125 0 Z M 5.96875 -11.5 C 6.476562 -11.5 6.859375 -12.050781 7.109375 -13.15625 C 7.222656 -13.632812 7.28125 -13.992188 7.28125 -14.234375 C 7.289062 -14.472656 7.25 -14.640625 7.15625 -14.734375 C 7.070312 -14.828125 6.921875 -14.875 6.703125 -14.875 L 5.859375 -14.875 L 5.09375 -11.5 Z M 5.96875 -11.5 "/></g></g></g><g fill="#000000" fill-opacity="1"><g transform="translate(59.435486, 46.164634)"><g><path d="M 3.03125 0.171875 C 1.5625 0.171875 0.546875 -0.273438 -0.015625 -1.171875 C -0.578125 -2.078125 -0.664062 -3.34375 -0.28125 -4.96875 L 1.71875 -13.65625 C 2.082031 -15.226562 2.738281 -16.414062 3.6875 -17.21875 C 4.632812 -18.019531 5.847656 -18.421875 7.328125 -18.421875 C 8.796875 -18.421875 9.820312 -18.019531 10.40625 -17.21875 C 10.988281 -16.414062 11.09375 -15.226562 10.71875 -13.65625 L 8.734375 -4.96875 C 8.347656 -3.320312 7.671875 -2.050781 6.703125 -1.15625 C 5.734375 -0.269531 4.507812 0.171875 3.03125 0.171875 Z M 3.796875 -3.1875 C 4.117188 -3.1875 4.375 -3.328125 4.5625 -3.609375 C 4.75 -3.890625 4.898438 -4.285156 5.015625 -4.796875 L 7.078125 -13.734375 C 7.160156 -14.128906 7.179688 -14.445312 7.140625 -14.6875 C 7.097656 -14.9375 6.910156 -15.0625 6.578125 -15.0625 C 5.972656 -15.0625 5.5625 -14.601562 5.34375 -13.6875 L 3.28125 -4.78125 C 3.15625 -4.257812 3.125 -3.863281 3.1875 -3.59375 C 3.25 -3.320312 3.453125 -3.1875 3.796875 -3.1875 Z M 3.796875 -3.1875 "/></g></g></g><g fill="#000000" fill-opacity="1"><g transform="translate(69.754603, 46.164634)"><g><path d="M 3.015625 0.171875 C 1.359375 0.171875 0.257812 -0.238281 -0.28125 -1.0625 C -0.832031 -1.882812 -0.894531 -3.207031 -0.46875 -5.03125 L -0.0625 -6.828125 L 3.515625 -6.828125 L 2.984375 -4.546875 C 2.773438 -3.640625 2.960938 -3.1875 3.546875 -3.1875 C 3.867188 -3.1875 4.117188 -3.28125 4.296875 -3.46875 C 4.472656 -3.664062 4.613281 -3.988281 4.71875 -4.4375 C 4.851562 -5.03125 4.890625 -5.519531 4.828125 -5.90625 C 4.773438 -6.300781 4.671875 -6.628906 4.515625 -6.890625 C 4.359375 -7.148438 4.0625 -7.5625 3.625 -8.125 L 2.421875 -9.6875 C 1.484375 -10.875 1.175781 -12.191406 1.5 -13.640625 C 1.851562 -15.203125 2.484375 -16.390625 3.390625 -17.203125 C 4.296875 -18.015625 5.4375 -18.421875 6.8125 -18.421875 C 8.457031 -18.421875 9.539062 -17.984375 10.0625 -17.109375 C 10.59375 -16.242188 10.632812 -14.882812 10.1875 -13.03125 L 6.46875 -13.03125 L 6.75 -14.28125 C 6.8125 -14.519531 6.789062 -14.707031 6.6875 -14.84375 C 6.59375 -14.988281 6.421875 -15.0625 6.171875 -15.0625 C 5.890625 -15.0625 5.65625 -14.984375 5.46875 -14.828125 C 5.289062 -14.671875 5.171875 -14.457031 5.109375 -14.1875 C 4.972656 -13.59375 5.171875 -12.976562 5.703125 -12.34375 L 7.375 -10.3125 C 7.75 -9.820312 8.050781 -9.359375 8.28125 -8.921875 C 8.507812 -8.492188 8.65625 -7.988281 8.71875 -7.40625 C 8.78125 -6.820312 8.71875 -6.125 8.53125 -5.3125 C 8.113281 -3.507812 7.46875 -2.144531 6.59375 -1.21875 C 5.71875 -0.289062 4.523438 0.171875 3.015625 0.171875 Z M 3.015625 0.171875 "/></g></g></g><g fill="#000000" fill-opacity="1"><g transform="translate(79.542912, 46.164634)"><g><path d="M -1.765625 0 L 4.203125 -18.25 L 10.390625 -18.25 L 7.921875 0 L 4.453125 0 L 4.875 -2.953125 L 2.671875 -2.953125 L 1.78125 0 Z M 3.625 -5.859375 L 5.28125 -5.859375 L 6.609375 -15.15625 L 6.4375 -15.15625 Z M 3.625 -5.859375 "/></g></g></g><g fill="#000000" fill-opacity="1"><g transform="translate(89.840787, 46.164634)"><g><path d="M -1.28125 0 L 2.921875 -18.25 L 10.234375 -18.25 L 9.421875 -14.703125 L 5.796875 -14.703125 L 5.109375 -11.796875 L 8.5625 -11.796875 L 7.75 -8.28125 L 4.3125 -8.28125 L 2.390625 0 Z M -1.28125 0 "/></g></g></g><g fill="#000000" fill-opacity="1"><g transform="translate(98.312662, 46.164634)"><g><path d="M -1.28125 0 L 2.921875 -18.25 L 10.234375 -18.25 L 9.421875 -14.71875 L 5.84375 -14.71875 L 5.015625 -11.171875 L 8.453125 -11.171875 L 7.671875 -7.734375 L 4.21875 -7.734375 L 3.25 -3.546875 L 7.078125 -3.546875 L 6.265625 0 Z M -1.28125 0 "/></g></g></g></svg>